<svg xmlns="http://www.w3.org/2000/svg" height="232.514" width="183.097"><g stroke-linecap="round" stroke-linejoin="round" stroke-width="3.366"><path d="M180.721 26.439l-2.268 12.166s-9.447 6.748-4.724 14.171l-6.748 13.495-32.389-9.447-1.232-13.063z" fill="#a57f53" stroke="#555556"/><g stroke="#3e4147" transform="translate(-5948.485 -1521.086)"><path d="M6080.23 1700.037c-6.833 21.374-21.9 38.792-74.98 22.842-29.393-8.832-47.011-22.436-53.184-37.328-3.92 21.418-7.27 44.552 49.811 60.325 52.773 14.583 67.3.6 76.112-17.2 1.717-3.47 5.043-30.917 3.992-38.443a37.348 37.348 0 01-1.751 9.804zM6115.027 1632.133c-2.295 7.165-8.449 13.4-18.114 17.362-23.557 9.651-16.685 19.354-15.146 34.063.727-5.865 4.662-10.985 17.119-16.089 5.753-2.356 10.931-5.066 13.455-9.2 2.293-3.764 4.059-23.027 2.686-26.136zM6014.424 1609.584s-13.029 18.668-8.764 43.147 19.152-2.6 19.152-2.6 6.685-24.827 4.619-26.757-15.007-13.79-15.007-13.79z" fill="#a57f53"/><path d="M6081.767 1683.558a25.546 25.546 0 00.214 6.673 44.711 44.711 0 00-.214-6.673z" fill="#71a3c3"/><path d="M6096.913 1649.495c9.665-3.959 15.819-10.2 18.114-17.362-5.884-11.382-20.624-22.5-45.451-29.157-24.471-8.682-46.881-1.737-52.039 2.594-5.319 4.466-4.49 10.051-3.27 20.117 8.307 25-36.161 17.782-55.015 43.77a39.612 39.612 0 00-7.186 16.094c2.647 19.485 23.791 28.5 53.184 37.328 53.077 15.95 68.147-1.468 74.98-22.842a37.348 37.348 0 001.751-9.806 25.546 25.546 0 01-.214-6.673c-1.539-14.709-8.411-24.412 15.146-34.063z" fill="#ebdaa7"/><ellipse cx="17.386" cy="30.215" fill="#555556" rx="17.386" ry="30.215" transform="rotate(-80.071 4002.514 -2723.848)"/><path d="M6051.964 1621.984l51.112-73.19 13.608.383-28.3 58.272-16.947 20.937z" fill="#ebdaa7"/><path d="M6081.971 1564.564l32.27 11.78 7.892-12.559s-6.391-8.782 7.766-17.82c-3.176-16.574-23.589-17.15-30.4-11.249 1.454 9.119-9.893 12.861-9.893 12.861z" fill="#ebdaa7"/><path d="M6117.927 1523.409l-115.759 182.312M6009.771 1707.011l113.622-181.178M6127.927 1527.991l-108.82 181.672" fill="none"/></g></g></svg>
