<svg id="svg" version="1.1" width="400" height="146.81318681318683" xmlns="http://www.w3.org/2000/svg" xmlns:xlink="http://www.w3.org/1999/xlink" style="display: block;"><g id="svgg"><path id="path0" d="M26.250 3.176 C 25.883 3.251,24.421 3.388,23.000 3.479 C 21.440 3.579,20.120 3.752,19.667 3.916 C 19.254 4.065,18.550 4.257,18.101 4.343 C 17.653 4.430,16.978 4.648,16.601 4.828 C 16.225 5.008,15.654 5.269,15.333 5.407 C 15.012 5.546,14.637 5.737,14.500 5.830 C 14.362 5.924,14.063 6.077,13.833 6.171 C 13.604 6.265,13.154 6.525,12.833 6.749 C 12.512 6.973,11.997 7.328,11.687 7.537 C 10.957 8.029,8.029 10.957,7.537 11.687 C 7.328 11.997,6.973 12.512,6.749 12.833 C 6.525 13.154,6.265 13.604,6.171 13.833 C 6.077 14.063,5.924 14.362,5.830 14.500 C 5.737 14.637,5.548 15.012,5.410 15.333 C 5.273 15.654,5.012 16.217,4.830 16.583 C 4.647 16.950,4.387 17.775,4.251 18.417 C 4.114 19.058,3.895 19.996,3.762 20.500 C 3.145 22.851,3.108 25.499,3.045 73.000 C 3.005 103.200,3.041 119.539,3.149 120.083 C 3.240 120.542,3.396 122.101,3.496 123.549 C 3.618 125.326,3.776 126.436,3.982 126.966 C 4.149 127.397,4.334 128.065,4.394 128.451 C 4.453 128.837,4.689 129.504,4.917 129.934 C 5.146 130.364,5.333 130.841,5.333 130.992 C 5.333 131.144,5.521 131.523,5.750 131.833 C 5.979 132.144,6.167 132.477,6.167 132.574 C 6.167 132.671,6.466 133.162,6.831 133.667 C 7.197 134.171,7.676 134.846,7.897 135.167 C 8.437 135.952,10.101 137.616,11.064 138.333 C 11.495 138.654,11.947 139.006,12.070 139.116 C 12.192 139.226,12.545 139.460,12.854 139.637 C 13.164 139.814,13.942 140.258,14.583 140.624 C 15.225 140.990,16.012 141.346,16.333 141.415 C 16.654 141.484,17.179 141.672,17.500 141.832 C 18.084 142.123,20.800 142.743,22.833 143.048 C 24.370 143.279,367.531 143.407,373.583 143.178 C 377.047 143.048,378.371 142.935,379.333 142.688 C 380.021 142.512,380.958 142.316,381.417 142.254 C 381.875 142.192,382.400 142.045,382.583 141.929 C 382.767 141.812,383.217 141.620,383.583 141.501 C 384.382 141.241,386.441 140.257,386.788 139.968 C 386.924 139.855,387.168 139.685,387.330 139.590 C 389.618 138.245,391.751 136.164,393.220 133.844 C 393.420 133.528,393.754 133.003,393.962 132.677 C 394.170 132.350,394.425 131.896,394.527 131.667 C 394.630 131.438,394.887 130.875,395.098 130.417 C 395.309 129.958,395.563 129.219,395.662 128.775 C 395.761 128.330,395.948 127.762,396.076 127.514 C 396.326 127.031,396.773 123.758,397.000 120.750 C 397.175 118.437,397.177 28.006,397.002 25.750 C 396.776 22.826,396.315 19.449,396.081 18.995 C 395.956 18.753,395.734 18.042,395.589 17.414 C 395.443 16.787,395.252 16.186,395.164 16.080 C 395.076 15.975,394.900 15.593,394.773 15.232 C 394.646 14.871,394.364 14.300,394.146 13.962 C 393.928 13.623,393.529 12.988,393.260 12.548 C 392.675 11.596,392.612 11.524,390.597 9.500 C 388.055 6.947,387.772 6.757,383.833 4.949 C 382.262 4.228,379.009 3.539,376.083 3.308 C 372.986 3.063,27.438 2.933,26.250 3.176 M175.336 15.278 C 176.933 16.622,176.998 18.561,175.490 19.926 C 174.533 20.792,171.333 20.108,171.333 19.036 C 171.333 18.907,171.205 18.584,171.048 18.319 C 169.852 16.294,173.483 13.719,175.336 15.278 M158.967 15.867 C 159.117 16.017,159.167 18.164,159.169 24.492 C 159.171 29.125,159.228 33.005,159.296 33.112 C 159.385 33.252,160.702 33.324,163.891 33.362 C 169.231 33.427,168.833 33.234,168.833 35.761 C 168.833 37.137,168.781 37.503,168.558 37.688 C 168.031 38.126,155.282 38.116,154.844 37.677 C 154.372 37.206,154.294 16.396,154.762 15.929 C 155.095 15.596,158.644 15.544,158.967 15.867 M198.963 18.593 C 199.307 18.834,199.333 18.981,199.333 20.658 C 199.333 22.718,199.296 22.667,200.792 22.667 C 202.150 22.667,202.333 22.891,202.333 24.554 C 202.333 26.272,202.156 26.500,200.821 26.500 C 199.235 26.500,199.333 26.283,199.333 29.790 C 199.333 33.822,199.495 34.160,201.365 34.016 C 202.114 33.958,202.393 34.588,202.295 36.114 C 202.187 37.800,202.135 37.833,199.646 37.833 C 195.483 37.833,194.339 36.138,194.335 29.962 C 194.333 26.239,194.492 26.621,192.868 26.442 C 191.771 26.321,191.667 26.160,191.667 24.583 C 191.667 23.001,191.730 22.908,192.954 22.675 C 194.371 22.407,194.894 21.735,194.972 20.083 C 195.007 19.350,195.111 18.656,195.205 18.542 C 195.468 18.219,198.487 18.260,198.963 18.593 M175.738 22.929 C 175.968 23.159,176.000 24.063,176.000 30.341 L 176.000 37.492 175.576 37.770 C 175.075 38.098,172.003 38.015,171.577 37.662 C 171.196 37.346,171.214 23.310,171.595 22.929 C 171.801 22.723,172.244 22.667,173.667 22.667 C 175.089 22.667,175.532 22.723,175.738 22.929 M188.002 23.305 C 190.448 24.694,191.656 27.333,189.847 27.333 C 189.607 27.333,189.132 27.483,188.790 27.667 C 187.716 28.242,186.915 27.958,186.245 26.764 C 185.893 26.138,183.333 26.278,183.333 26.923 C 183.333 27.042,183.288 27.258,183.232 27.404 C 183.113 27.713,184.035 28.166,184.786 28.168 C 185.041 28.168,185.467 28.282,185.733 28.421 C 185.999 28.559,186.732 28.780,187.363 28.912 C 188.615 29.173,189.332 29.649,190.286 30.855 C 190.852 31.571,190.900 31.823,190.835 33.750 C 190.795 34.914,189.650 36.666,188.752 36.937 C 188.568 36.993,188.248 37.193,188.041 37.382 C 187.611 37.776,185.393 38.014,183.500 37.868 C 181.790 37.736,179.653 36.377,179.150 35.101 C 179.037 34.816,178.836 34.455,178.703 34.298 C 178.064 33.547,178.927 32.763,180.654 32.527 C 181.920 32.354,182.509 32.582,182.895 33.395 C 183.481 34.629,186.333 34.588,186.333 33.346 C 186.333 32.772,186.053 32.500,185.460 32.500 C 185.200 32.500,184.708 32.358,184.368 32.185 C 184.028 32.012,183.243 31.792,182.623 31.696 C 180.616 31.385,178.422 28.913,178.825 27.417 C 179.461 25.051,180.030 24.103,181.083 23.657 C 181.358 23.540,181.715 23.333,181.876 23.196 C 182.746 22.455,186.626 22.524,188.002 23.305 M214.945 23.304 C 215.840 23.757,216.558 24.270,217.058 24.813 C 217.136 24.897,217.361 25.141,217.558 25.354 C 218.491 26.363,218.867 27.478,218.955 29.488 C 219.066 32.039,219.538 31.833,213.561 31.833 C 210.247 31.833,208.651 31.891,208.575 32.014 C 208.287 32.479,210.854 34.168,211.847 34.166 C 212.402 34.165,214.181 33.255,214.530 32.794 C 214.788 32.452,214.940 32.420,216.136 32.447 C 218.475 32.501,219.366 33.236,218.434 34.343 C 218.195 34.627,218.000 34.959,218.000 35.082 C 218.000 35.368,216.593 36.609,215.833 36.994 C 215.512 37.157,214.999 37.421,214.693 37.582 C 213.923 37.985,209.615 38.003,208.890 37.607 C 208.630 37.464,208.111 37.203,207.738 37.026 C 206.811 36.586,205.002 34.879,204.708 34.167 C 204.575 33.846,204.343 33.445,204.192 33.275 C 203.659 32.676,203.715 27.976,204.261 27.429 C 204.394 27.296,204.642 26.864,204.812 26.469 C 205.191 25.589,206.919 23.841,207.530 23.719 C 207.776 23.670,208.144 23.474,208.347 23.284 C 209.239 22.454,213.291 22.465,214.945 23.304 M226.409 22.770 C 226.558 22.827,226.793 23.094,226.933 23.364 L 227.186 23.854 228.135 23.306 C 229.355 22.600,232.692 22.464,233.571 23.083 C 233.831 23.267,234.165 23.492,234.314 23.585 C 234.723 23.839,235.533 24.635,235.736 24.981 C 235.836 25.151,236.067 25.502,236.250 25.762 C 236.565 26.208,236.586 26.552,236.638 31.855 L 236.693 37.475 236.256 37.761 C 235.742 38.098,232.678 38.022,232.244 37.662 C 232.041 37.493,232.000 36.722,232.000 33.084 C 232.000 28.083,231.961 27.742,231.353 27.425 C 231.113 27.301,230.729 27.034,230.500 26.834 C 229.718 26.150,228.483 26.605,227.458 27.955 L 227.000 28.559 227.000 33.026 L 227.000 37.492 226.576 37.770 C 226.075 38.098,223.003 38.015,222.577 37.662 C 222.196 37.346,222.214 23.310,222.595 22.929 C 222.865 22.659,225.801 22.537,226.409 22.770 M258.323 23.243 C 258.659 23.476,259.029 23.667,259.144 23.667 C 259.819 23.667,261.710 25.627,262.427 27.071 C 263.160 28.549,263.180 32.457,262.458 33.314 C 262.206 33.614,262.000 34.022,262.000 34.221 C 262.000 34.673,259.808 36.793,259.185 36.944 C 258.946 37.001,258.533 37.201,258.267 37.387 C 257.710 37.776,255.607 38.006,253.833 37.871 C 251.579 37.700,248.402 35.506,247.833 33.730 C 247.719 33.374,247.481 32.842,247.303 32.547 C 246.089 30.535,247.531 26.215,250.100 24.164 C 251.961 22.678,256.736 22.143,258.323 23.243 M269.902 23.208 L 270.328 23.750 271.258 23.250 C 272.580 22.540,275.917 22.491,276.821 23.168 C 277.531 23.700,278.633 24.802,279.167 25.514 L 279.583 26.069 279.633 31.858 L 279.683 37.646 279.309 37.846 C 278.718 38.163,275.487 37.936,275.211 37.559 C 275.053 37.342,275.000 36.133,275.000 32.732 C 275.000 27.517,275.061 27.835,273.922 27.079 C 272.622 26.216,271.708 26.459,270.547 27.977 L 270.083 28.583 270.032 33.124 C 269.971 38.526,270.194 38.099,267.512 37.947 C 265.120 37.812,265.333 38.561,265.333 30.301 C 265.333 21.932,265.102 22.667,267.738 22.667 L 269.476 22.667 269.902 23.208 M82.417 23.570 C 83.700 23.714,85.388 23.980,86.167 24.160 C 86.946 24.340,88.071 24.599,88.667 24.734 C 91.848 25.458,95.318 26.739,98.833 28.486 C 101.712 29.917,103.380 30.910,105.642 32.536 C 108.666 34.711,112.970 38.632,114.547 40.649 C 114.934 41.144,115.362 41.672,115.500 41.822 C 115.638 41.972,116.087 42.542,116.500 43.089 C 116.912 43.635,117.308 44.157,117.378 44.249 C 117.779 44.774,118.362 45.660,118.648 46.178 C 118.828 46.505,119.094 46.870,119.238 46.990 C 119.382 47.110,119.500 47.305,119.500 47.424 C 119.500 47.544,119.677 47.853,119.893 48.112 C 120.108 48.371,120.375 48.859,120.484 49.195 C 120.594 49.531,120.789 49.894,120.917 50.000 C 121.045 50.106,121.238 50.469,121.346 50.805 C 121.454 51.141,121.649 51.539,121.779 51.689 C 121.909 51.838,122.095 52.251,122.191 52.605 C 122.288 52.960,122.465 53.362,122.585 53.500 C 122.790 53.733,123.039 54.355,123.755 56.417 C 123.914 56.875,124.222 57.720,124.439 58.295 C 124.656 58.870,124.833 59.523,124.833 59.747 C 124.833 59.971,124.981 60.551,125.161 61.035 C 125.342 61.520,125.604 62.629,125.744 63.500 C 125.883 64.371,126.111 65.671,126.249 66.390 C 126.608 68.258,126.606 78.728,126.246 80.417 C 126.109 81.058,125.879 82.320,125.735 83.220 C 125.591 84.120,125.373 85.096,125.251 85.388 C 125.129 85.680,124.942 86.406,124.836 87.001 C 124.730 87.596,124.535 88.250,124.404 88.454 C 124.273 88.657,124.082 89.220,123.981 89.704 C 123.880 90.187,123.663 90.808,123.500 91.083 C 123.336 91.358,123.147 91.846,123.080 92.167 C 123.012 92.487,122.822 92.922,122.656 93.133 C 122.491 93.343,122.304 93.756,122.241 94.049 C 122.177 94.343,121.982 94.786,121.807 95.034 C 121.631 95.282,121.404 95.732,121.301 96.034 C 121.198 96.336,120.975 96.762,120.807 96.981 C 120.638 97.199,120.500 97.475,120.500 97.593 C 120.500 97.711,120.313 98.031,120.083 98.303 C 119.854 98.575,119.666 98.862,119.666 98.941 C 119.665 99.075,119.226 99.794,118.667 100.578 C 118.529 100.771,118.267 101.177,118.083 101.480 C 117.489 102.464,117.115 102.944,114.698 105.833 C 111.607 109.527,106.852 113.684,103.359 115.746 C 103.207 115.835,102.806 116.087,102.466 116.305 C 101.339 117.029,97.160 119.156,96.083 119.554 C 95.717 119.690,94.817 120.039,94.083 120.330 C 93.350 120.622,92.263 120.996,91.667 121.163 C 91.071 121.329,90.283 121.575,89.917 121.709 C 89.550 121.844,88.725 122.042,88.083 122.150 C 87.442 122.258,86.579 122.451,86.167 122.580 C 82.696 123.659,70.782 123.652,66.833 122.569 C 66.329 122.431,65.279 122.178,64.500 122.009 C 62.591 121.593,58.176 120.179,57.765 119.852 C 57.665 119.773,57.396 119.655,57.167 119.590 C 56.938 119.526,56.375 119.295,55.917 119.077 C 55.458 118.859,54.821 118.565,54.500 118.424 C 53.805 118.117,52.170 117.217,50.833 116.405 C 46.939 114.038,44.144 111.840,41.000 108.673 C 39.173 106.832,36.803 104.088,35.958 102.833 C 35.803 102.604,35.452 102.117,35.178 101.750 C 34.903 101.383,34.522 100.821,34.331 100.500 C 34.140 100.179,33.726 99.504,33.411 99.000 C 33.097 98.496,32.717 97.822,32.568 97.503 C 32.419 97.184,32.155 96.742,31.982 96.522 C 31.808 96.302,31.667 95.999,31.667 95.850 C 31.667 95.700,31.479 95.301,31.250 94.964 C 31.021 94.627,30.833 94.253,30.833 94.134 C 30.832 94.014,30.608 93.467,30.333 92.917 C 30.059 92.367,29.832 91.804,29.829 91.667 C 29.826 91.529,29.638 91.042,29.413 90.583 C 29.188 90.125,29.002 89.616,29.002 89.453 C 29.001 89.290,28.822 88.728,28.604 88.203 C 28.386 87.679,28.156 86.891,28.093 86.452 C 28.029 86.013,27.842 85.259,27.676 84.776 C 27.510 84.293,27.320 83.415,27.254 82.824 C 27.188 82.233,26.982 81.000,26.795 80.083 C 26.291 77.605,26.289 69.021,26.792 66.667 C 26.979 65.796,27.185 64.596,27.250 64.000 C 27.316 63.404,27.509 62.504,27.679 62.000 C 27.849 61.496,28.061 60.620,28.150 60.053 C 28.238 59.486,28.421 58.848,28.556 58.636 C 28.690 58.424,28.880 57.865,28.977 57.395 C 29.075 56.924,29.300 56.287,29.478 55.978 C 29.656 55.669,29.854 55.161,29.920 54.848 C 29.985 54.535,30.217 53.942,30.436 53.531 C 30.655 53.120,30.833 52.656,30.833 52.501 C 30.833 52.346,30.979 52.086,31.157 51.925 C 31.335 51.764,31.527 51.424,31.583 51.170 C 31.638 50.916,31.864 50.464,32.083 50.167 C 32.303 49.869,32.529 49.415,32.585 49.158 C 32.642 48.900,32.800 48.597,32.937 48.483 C 33.074 48.369,33.294 48.046,33.427 47.763 C 33.559 47.481,33.874 46.937,34.126 46.555 C 37.607 41.270,41.120 37.443,46.083 33.531 C 46.946 32.852,48.246 31.964,50.667 30.402 C 51.424 29.913,53.918 28.565,54.667 28.239 C 54.987 28.100,55.625 27.808,56.083 27.590 C 56.542 27.372,57.104 27.141,57.333 27.077 C 57.563 27.012,57.832 26.894,57.932 26.814 C 58.158 26.635,60.219 25.911,61.667 25.502 C 62.262 25.334,62.975 25.109,63.250 25.001 C 63.525 24.894,64.372 24.696,65.132 24.563 C 65.893 24.429,66.718 24.240,66.966 24.143 C 69.044 23.327,77.481 23.014,82.417 23.570 M209.577 27.100 C 208.517 28.099,208.794 28.250,211.685 28.250 C 214.503 28.250,214.794 28.053,213.476 27.040 C 212.381 26.199,210.502 26.228,209.577 27.100 M254.333 26.745 C 253.936 26.975,253.300 27.268,252.894 27.409 C 252.497 27.547,251.667 29.533,251.667 30.343 C 251.667 32.656,254.490 34.864,256.011 33.742 C 256.316 33.517,256.695 33.333,256.854 33.333 C 257.014 33.333,257.314 33.090,257.522 32.792 C 257.730 32.494,257.979 32.197,258.075 32.131 C 258.969 31.523,257.935 27.492,256.823 27.248 C 256.569 27.192,256.193 27.001,255.988 26.823 C 255.548 26.441,254.912 26.411,254.333 26.745 M309.182 47.042 C 309.403 47.180,309.782 47.340,310.025 47.396 C 311.309 47.693,312.869 49.734,313.168 51.508 C 314.169 57.443,307.561 60.983,303.314 56.788 C 302.775 56.255,302.333 55.740,302.333 55.644 C 302.333 55.548,302.183 55.279,302.000 55.045 C 301.400 54.283,301.513 51.268,302.185 50.076 C 303.642 47.495,307.342 45.891,309.182 47.042 M335.417 49.241 C 337.381 49.455,338.729 49.795,339.292 50.218 C 339.583 50.437,339.591 57.509,339.300 57.800 C 338.999 58.101,338.107 58.041,337.127 57.653 C 334.005 56.418,330.980 57.430,330.246 59.954 C 329.268 63.318,328.963 63.166,336.720 63.169 C 344.372 63.171,344.260 63.158,344.689 64.066 C 344.866 64.442,345.120 64.938,345.253 65.167 C 345.386 65.396,345.496 65.757,345.498 65.970 C 345.499 66.183,345.679 66.671,345.898 67.054 C 346.117 67.437,346.347 68.041,346.410 68.398 C 346.472 68.754,346.661 69.241,346.830 69.481 C 346.998 69.721,347.184 70.202,347.244 70.550 C 347.303 70.898,347.535 71.528,347.759 71.950 C 347.983 72.371,348.167 72.861,348.167 73.037 C 348.167 73.213,348.346 73.671,348.565 74.054 C 348.784 74.437,349.014 75.041,349.077 75.398 C 349.139 75.754,349.328 76.241,349.496 76.481 C 349.665 76.721,349.851 77.202,349.910 77.550 C 349.970 77.898,350.202 78.528,350.426 78.950 C 350.650 79.371,350.833 79.861,350.833 80.037 C 350.833 80.213,351.013 80.671,351.234 81.054 C 351.454 81.437,351.687 82.003,351.751 82.312 C 351.816 82.621,352.004 83.109,352.168 83.396 C 352.333 83.682,352.521 84.179,352.585 84.500 C 352.650 84.821,352.845 85.317,353.018 85.603 C 353.191 85.889,353.334 86.264,353.334 86.436 C 353.340 88.377,354.835 88.608,355.083 86.706 C 355.140 86.272,355.325 85.579,355.494 85.167 C 355.831 84.348,356.346 82.828,356.828 81.226 C 356.997 80.663,357.248 80.025,357.385 79.809 C 357.522 79.593,357.719 79.007,357.822 78.507 C 357.926 78.006,358.122 77.475,358.256 77.326 C 358.391 77.178,358.582 76.612,358.682 76.070 C 358.781 75.527,358.968 74.966,359.097 74.822 C 359.225 74.678,359.407 74.157,359.500 73.665 C 359.594 73.172,359.791 72.585,359.939 72.359 C 360.087 72.133,360.314 71.494,360.444 70.938 C 360.573 70.383,360.788 69.808,360.922 69.661 C 361.055 69.514,361.240 68.991,361.334 68.498 C 361.427 68.006,361.616 67.432,361.752 67.223 C 361.889 67.014,362.086 66.447,362.190 65.963 C 362.480 64.606,363.231 63.396,363.859 63.270 C 364.552 63.131,371.640 63.170,372.167 63.315 C 372.741 63.473,372.842 64.514,372.348 65.182 C 372.160 65.437,371.926 66.005,371.827 66.445 C 371.728 66.885,371.544 67.360,371.417 67.500 C 371.290 67.640,371.102 68.127,371.001 68.581 C 370.899 69.035,370.678 69.633,370.509 69.911 C 370.341 70.189,370.148 70.673,370.082 70.986 C 370.016 71.299,369.783 71.891,369.564 72.302 C 369.345 72.713,369.167 73.171,369.167 73.319 C 369.167 73.467,369.023 73.857,368.847 74.186 C 368.671 74.514,368.439 75.113,368.333 75.516 C 368.227 75.920,368.040 76.406,367.918 76.596 C 367.796 76.787,367.582 77.312,367.442 77.763 C 367.302 78.214,366.949 79.146,366.657 79.833 C 366.025 81.321,365.444 82.828,364.897 84.401 C 364.677 85.035,364.430 85.635,364.348 85.735 C 364.266 85.835,364.109 86.253,363.999 86.665 C 363.889 87.077,363.667 87.602,363.506 87.832 C 363.345 88.062,363.161 88.535,363.097 88.883 C 363.034 89.232,362.798 89.862,362.574 90.283 C 362.350 90.705,362.167 91.198,362.167 91.380 C 362.167 91.562,362.021 91.947,361.842 92.236 C 361.664 92.524,361.436 93.125,361.336 93.570 C 361.237 94.015,361.016 94.555,360.847 94.771 C 360.677 94.986,360.488 95.496,360.427 95.903 C 360.366 96.310,360.169 96.831,359.989 97.060 C 359.808 97.289,359.596 97.822,359.518 98.244 C 359.439 98.667,359.263 99.141,359.127 99.298 C 358.991 99.455,358.795 99.935,358.690 100.365 C 358.586 100.796,358.357 101.396,358.183 101.699 C 358.008 102.002,357.816 102.489,357.755 102.780 C 357.695 103.072,357.541 103.396,357.414 103.502 C 357.288 103.607,357.094 103.969,356.984 104.305 C 356.875 104.641,356.608 105.129,356.393 105.388 C 356.177 105.647,356.000 105.928,356.000 106.011 C 356.000 106.554,353.565 109.103,352.229 109.959 C 349.285 111.846,341.978 111.956,339.066 110.156 C 338.779 109.979,338.424 109.833,338.278 109.833 C 337.384 109.833,336.580 108.447,337.167 107.917 C 337.350 107.751,337.500 107.488,337.500 107.332 C 337.500 107.177,337.676 106.719,337.890 106.316 C 338.105 105.912,338.377 105.282,338.495 104.916 C 338.612 104.550,338.804 104.138,338.921 104.000 C 339.038 103.862,339.256 103.453,339.407 103.089 C 339.795 102.148,340.667 101.815,341.167 102.417 C 341.281 102.554,341.496 102.668,341.645 102.670 C 341.795 102.672,342.442 102.859,343.083 103.086 C 345.754 104.030,348.044 103.035,349.153 100.448 C 349.502 99.634,349.210 98.282,348.487 97.363 C 348.311 97.139,348.164 96.796,348.161 96.603 C 348.159 96.409,347.934 95.802,347.661 95.254 C 347.389 94.707,347.167 94.097,347.167 93.900 C 347.167 93.702,347.054 93.448,346.917 93.334 C 346.780 93.220,346.555 92.748,346.418 92.285 C 346.280 91.822,346.061 91.280,345.931 91.082 C 345.800 90.883,345.605 90.390,345.496 89.986 C 345.388 89.583,345.157 89.053,344.983 88.809 C 344.809 88.565,344.666 88.264,344.666 88.141 C 344.666 88.018,344.441 87.467,344.167 86.917 C 343.892 86.367,343.668 85.819,343.667 85.701 C 343.667 85.582,343.479 85.133,343.250 84.702 C 343.021 84.272,342.833 83.820,342.833 83.699 C 342.833 83.507,342.560 82.866,341.578 80.750 C 341.450 80.475,341.186 79.837,340.990 79.333 C 340.200 77.294,339.965 76.720,339.656 76.072 C 339.479 75.700,339.333 75.279,339.333 75.137 C 339.333 74.994,339.187 74.693,339.009 74.466 C 338.831 74.240,338.601 73.720,338.498 73.311 C 338.388 72.875,338.071 72.314,337.728 71.951 L 337.146 71.333 334.031 71.336 C 332.318 71.337,330.842 71.394,330.750 71.461 C 330.142 71.907,330.148 71.772,330.155 85.945 L 330.163 99.750 329.730 100.063 C 328.982 100.604,321.417 100.557,320.973 100.008 C 320.669 99.633,320.658 99.115,320.671 85.783 C 320.687 69.645,320.980 71.457,318.334 71.334 C 315.862 71.220,316.023 71.497,315.985 67.279 C 315.947 63.003,315.783 63.282,318.414 63.167 C 320.831 63.061,320.697 63.237,320.784 60.062 C 320.828 58.473,320.944 57.202,321.077 56.843 C 321.199 56.517,321.391 55.987,321.504 55.667 C 323.360 50.415,327.722 48.400,335.417 49.241 M61.750 50.013 C 60.283 50.098,58.633 50.235,58.083 50.318 C 57.533 50.402,56.183 50.594,55.083 50.746 C 53.983 50.898,52.596 51.137,52.000 51.278 C 51.404 51.419,50.294 51.639,49.533 51.768 C 48.772 51.897,47.898 52.108,47.591 52.236 C 47.283 52.365,46.593 52.559,46.057 52.668 C 43.834 53.121,42.343 54.572,42.026 56.591 C 41.467 60.161,44.652 62.929,48.072 61.846 C 49.442 61.412,50.998 61.027,52.500 60.748 C 53.188 60.621,54.575 60.362,55.583 60.174 C 59.455 59.450,68.136 58.908,72.023 59.147 C 77.468 59.481,81.250 59.824,83.250 60.164 C 87.446 60.877,88.110 61.000,89.000 61.225 C 89.504 61.352,90.292 61.538,90.750 61.637 C 92.228 61.957,94.592 62.615,94.947 62.805 C 95.136 62.906,95.648 63.069,96.083 63.167 C 96.519 63.264,97.187 63.486,97.568 63.660 C 97.950 63.834,98.484 64.029,98.756 64.095 C 99.028 64.161,99.587 64.391,99.999 64.607 C 100.410 64.823,100.831 65.000,100.934 65.000 C 101.107 65.000,102.939 65.849,103.500 66.190 C 103.638 66.273,104.125 66.531,104.583 66.762 C 105.042 66.993,105.904 67.436,106.500 67.747 C 111.893 70.559,116.129 62.576,110.844 59.560 C 110.546 59.389,109.952 59.052,109.526 58.810 C 108.035 57.964,104.340 56.171,104.070 56.161 C 103.986 56.159,103.542 55.972,103.083 55.746 C 102.625 55.521,102.147 55.336,102.021 55.335 C 101.895 55.334,101.370 55.158,100.854 54.944 C 99.625 54.433,98.030 53.895,96.583 53.505 C 95.942 53.331,94.967 53.067,94.417 52.918 C 91.717 52.185,90.797 51.971,89.391 51.747 C 88.551 51.613,87.680 51.433,87.454 51.348 C 87.229 51.262,86.015 51.072,84.757 50.926 C 83.499 50.781,82.147 50.589,81.753 50.501 C 79.557 50.009,67.080 49.704,61.750 50.013 M175.667 51.077 C 177.918 51.375,181.977 52.555,183.018 53.213 C 183.237 53.352,183.593 53.518,183.809 53.583 C 184.025 53.647,184.450 53.861,184.754 54.058 C 185.058 54.255,185.697 54.642,186.175 54.917 C 186.652 55.192,187.167 55.532,187.319 55.673 C 187.471 55.814,187.861 56.093,188.186 56.294 C 189.023 56.811,189.263 57.401,188.880 57.997 C 188.480 58.619,187.785 59.608,187.179 60.417 C 186.904 60.783,186.553 61.308,186.398 61.583 C 186.244 61.858,185.978 62.181,185.809 62.301 C 185.639 62.421,185.500 62.608,185.499 62.718 C 185.495 63.832,183.821 64.399,182.817 63.626 C 182.548 63.419,182.123 63.091,181.872 62.896 C 181.209 62.380,177.420 60.500,177.044 60.500 C 176.921 60.500,176.541 60.358,176.200 60.184 C 174.578 59.356,168.272 59.349,167.132 60.173 C 166.883 60.353,166.596 60.500,166.492 60.500 C 165.950 60.500,164.502 62.359,164.155 63.500 L 163.803 64.659 164.175 65.861 C 164.647 67.387,166.627 69.333,167.705 69.333 C 167.840 69.333,168.294 69.516,168.714 69.740 C 169.135 69.963,169.894 70.223,170.402 70.316 C 170.910 70.410,171.542 70.600,171.808 70.737 C 172.074 70.874,172.807 71.067,173.437 71.164 C 174.068 71.262,174.921 71.481,175.333 71.651 C 175.746 71.821,176.457 72.014,176.914 72.080 C 177.372 72.145,177.962 72.311,178.228 72.448 C 178.493 72.585,179.094 72.807,179.563 72.940 C 180.464 73.197,180.592 73.251,182.833 74.334 C 185.031 75.396,185.621 75.793,186.897 77.070 C 188.436 78.611,188.771 79.009,189.026 79.598 C 189.142 79.865,189.367 80.257,189.525 80.468 C 189.684 80.680,189.899 81.280,190.004 81.802 C 190.108 82.323,190.300 83.120,190.430 83.572 C 190.708 84.536,190.748 87.644,190.494 88.501 C 190.399 88.821,190.210 89.608,190.074 90.250 C 189.835 91.373,188.815 93.722,188.475 93.932 C 188.384 93.988,188.259 94.171,188.197 94.338 C 188.001 94.862,186.171 96.820,185.218 97.524 C 178.452 102.522,165.551 102.122,157.167 96.654 C 156.754 96.385,156.201 96.034,155.937 95.874 C 155.674 95.714,154.971 95.190,154.375 94.708 C 153.779 94.227,153.239 93.833,153.176 93.833 C 153.113 93.833,152.933 93.563,152.775 93.232 L 152.489 92.632 153.119 91.861 C 153.801 91.028,156.360 87.971,157.220 86.962 C 157.919 86.142,158.382 86.150,159.294 86.998 C 165.949 93.179,177.547 94.342,180.491 89.124 C 182.120 86.238,179.944 82.560,176.125 81.744 C 175.827 81.680,175.164 81.454,174.652 81.240 C 174.140 81.027,173.315 80.800,172.819 80.737 C 172.323 80.673,171.724 80.524,171.488 80.405 C 171.252 80.286,170.405 80.066,169.605 79.916 C 168.806 79.766,167.836 79.501,167.451 79.326 C 167.065 79.151,166.563 79.005,166.333 79.002 C 166.104 78.999,165.542 78.812,165.083 78.587 C 164.625 78.362,164.137 78.175,164.000 78.172 C 162.910 78.148,158.534 75.343,157.211 73.820 C 154.048 70.181,153.387 62.984,155.848 59.000 C 155.933 58.862,156.132 58.487,156.291 58.167 C 157.175 56.382,161.328 52.675,162.453 52.666 C 162.525 52.665,162.808 52.544,163.083 52.397 C 165.638 51.027,171.033 50.461,175.667 51.077 M288.844 53.506 C 289.151 53.670,289.167 53.899,289.167 58.100 C 289.167 60.829,289.233 62.645,289.339 62.844 C 289.503 63.150,289.731 63.167,293.714 63.169 C 296.766 63.171,298.031 63.229,298.333 63.382 L 298.750 63.593 298.795 67.273 C 298.830 70.203,298.794 70.992,298.614 71.141 C 298.464 71.266,296.933 71.342,293.991 71.372 L 289.593 71.417 289.382 71.833 C 289.140 72.313,289.079 88.721,289.315 89.939 C 289.532 91.059,290.400 91.951,291.500 92.183 C 292.972 92.494,295.726 92.266,296.724 91.750 C 298.674 90.743,298.833 90.990,298.833 95.020 C 298.833 99.147,298.714 99.380,296.240 100.090 C 295.696 100.246,295.171 100.436,295.075 100.513 C 294.713 100.801,291.711 101.039,289.647 100.944 C 286.211 100.785,284.519 100.118,282.517 98.135 C 279.911 95.553,279.784 94.844,279.709 82.417 C 279.635 70.113,279.896 71.333,277.335 71.333 C 275.024 71.333,275.167 71.605,275.167 67.198 C 275.167 62.991,275.001 63.272,277.517 63.194 C 279.834 63.121,279.653 63.531,279.706 58.241 L 279.750 53.760 280.167 53.549 C 280.696 53.281,288.354 53.243,288.844 53.506 M219.500 63.057 C 221.091 63.603,222.504 64.190,223.016 64.518 C 223.236 64.659,223.540 64.820,223.691 64.875 C 225.015 65.361,229.500 69.934,229.500 70.799 C 229.500 70.885,229.640 71.134,229.811 71.353 C 230.857 72.690,231.914 76.519,232.163 79.876 C 232.419 83.333,231.680 88.779,230.758 90.224 C 230.632 90.422,230.436 90.901,230.322 91.289 C 230.209 91.677,229.977 92.120,229.808 92.273 C 229.638 92.426,229.500 92.638,229.500 92.742 C 229.500 93.258,226.600 96.695,225.573 97.397 C 222.756 99.321,222.113 99.668,220.146 100.325 C 216.350 101.593,210.589 101.238,207.892 99.570 C 206.220 98.535,205.512 98.025,204.973 97.468 C 203.208 95.643,203.176 95.758,203.188 103.724 C 203.197 109.707,203.166 110.559,202.929 110.922 L 202.659 111.333 198.588 111.333 L 194.517 111.333 194.133 110.792 L 193.750 110.250 193.833 86.965 C 193.916 63.925,193.920 63.678,194.250 63.429 C 194.728 63.068,202.437 63.045,202.926 63.403 C 203.215 63.614,203.246 63.828,203.217 65.355 C 203.170 67.815,203.371 67.878,205.333 66.016 C 206.863 64.564,209.866 63.029,212.000 62.610 C 213.361 62.342,218.268 62.635,219.500 63.057 M259.750 63.036 C 264.195 64.374,267.921 66.689,270.048 69.435 C 271.458 71.256,271.667 71.554,271.667 71.747 C 271.667 71.858,271.817 72.084,272.000 72.250 C 272.183 72.416,272.333 72.645,272.333 72.759 C 272.333 72.873,272.559 73.395,272.834 73.919 C 273.110 74.443,273.383 75.181,273.441 75.561 C 273.499 75.940,273.705 76.550,273.898 76.917 C 274.444 77.951,274.438 85.732,273.891 86.754 C 273.693 87.123,273.479 87.775,273.415 88.204 C 273.351 88.632,273.118 89.226,272.899 89.524 C 272.680 89.821,272.500 90.226,272.500 90.423 C 272.500 90.619,272.347 90.961,272.159 91.182 C 271.972 91.403,271.523 92.033,271.162 92.583 C 263.973 103.541,246.333 104.106,238.821 93.619 C 238.507 93.181,238.044 92.552,237.792 92.221 C 237.540 91.891,237.333 91.529,237.333 91.416 C 237.333 91.304,237.174 91.010,236.980 90.762 C 236.786 90.515,236.556 90.000,236.470 89.617 C 236.384 89.235,236.204 88.800,236.070 88.652 C 235.936 88.504,235.716 87.790,235.581 87.066 C 235.446 86.342,235.222 85.340,235.084 84.839 C 234.925 84.260,234.833 83.193,234.833 81.917 C 234.833 80.640,234.925 79.573,235.084 78.995 C 235.222 78.493,235.444 77.501,235.577 76.788 C 235.710 76.076,235.936 75.326,236.080 75.122 C 236.224 74.917,236.422 74.453,236.520 74.089 C 236.618 73.726,236.842 73.247,237.016 73.025 C 237.191 72.803,237.333 72.538,237.333 72.435 C 237.333 72.272,237.849 71.476,238.791 70.183 C 239.125 69.726,241.939 66.877,242.429 66.500 C 243.548 65.640,246.472 64.001,246.892 63.999 C 246.997 63.998,247.307 63.881,247.580 63.739 C 248.021 63.509,250.377 62.830,251.500 62.609 C 252.812 62.350,258.439 62.642,259.750 63.036 M311.862 63.442 C 312.260 63.803,312.346 99.524,311.951 100.065 C 311.617 100.521,303.894 100.584,303.158 100.137 L 302.667 99.838 302.669 81.877 C 302.671 71.999,302.727 63.835,302.794 63.736 C 303.129 63.241,303.671 63.177,307.570 63.172 C 311.051 63.167,311.596 63.202,311.862 63.442 M62.917 67.176 C 62.275 67.247,60.546 67.425,59.074 67.569 C 57.602 67.714,56.027 67.940,55.574 68.072 C 55.121 68.204,54.180 68.390,53.482 68.485 C 52.785 68.579,51.999 68.739,51.736 68.839 C 51.472 68.939,50.654 69.161,49.918 69.333 C 47.149 69.979,46.033 70.783,45.464 72.542 L 45.101 73.668 45.467 74.709 C 46.384 77.320,48.665 78.044,52.137 76.828 C 52.625 76.657,53.375 76.469,53.804 76.411 C 54.232 76.352,55.108 76.166,55.750 75.998 C 56.392 75.829,58.042 75.569,59.417 75.421 C 60.792 75.273,62.479 75.083,63.167 75.000 C 64.809 74.800,71.033 74.797,72.833 74.995 C 78.412 75.607,80.136 75.826,80.510 75.970 C 80.744 76.060,81.532 76.221,82.260 76.326 C 82.988 76.432,84.033 76.659,84.583 76.831 C 85.133 77.003,85.846 77.191,86.167 77.248 C 86.851 77.371,88.977 78.043,90.462 78.605 C 91.036 78.822,91.599 79.001,91.712 79.002 C 91.824 79.002,92.292 79.188,92.750 79.413 C 93.208 79.638,93.653 79.825,93.738 79.828 C 93.894 79.833,96.211 80.904,96.667 81.181 C 96.804 81.265,97.292 81.522,97.750 81.751 C 98.208 81.980,98.958 82.388,99.417 82.656 C 102.140 84.250,104.240 83.950,105.773 81.750 C 106.426 80.812,106.458 79.044,105.837 78.167 C 105.237 77.319,104.294 76.333,104.083 76.333 C 103.982 76.333,103.809 76.242,103.697 76.131 C 103.470 75.903,100.567 74.302,99.667 73.908 C 99.346 73.767,98.707 73.468,98.248 73.243 C 97.788 73.018,97.338 72.831,97.248 72.828 C 97.157 72.825,96.708 72.638,96.250 72.413 C 95.792 72.188,95.320 72.002,95.203 72.002 C 95.085 72.001,94.635 71.822,94.203 71.604 C 93.770 71.386,93.154 71.153,92.833 71.086 C 92.513 71.019,92.012 70.854,91.721 70.719 C 91.222 70.488,90.054 70.145,87.750 69.555 C 87.200 69.414,86.337 69.192,85.833 69.062 C 85.329 68.931,84.242 68.710,83.417 68.571 C 82.592 68.431,81.504 68.210,81.000 68.080 C 80.496 67.950,78.846 67.726,77.333 67.583 C 75.821 67.441,73.946 67.252,73.167 67.163 C 71.520 66.977,64.623 66.985,62.917 67.176 M211.083 71.087 C 208.732 71.467,205.647 73.637,204.749 75.543 C 204.609 75.840,204.390 76.271,204.263 76.500 C 203.150 78.511,202.767 83.717,203.601 85.500 C 203.794 85.912,204.001 86.454,204.061 86.704 C 204.344 87.878,206.686 90.665,207.909 91.284 C 208.188 91.425,208.529 91.634,208.667 91.748 C 209.719 92.625,213.326 93.055,215.079 92.513 C 215.697 92.323,216.314 92.167,216.451 92.167 C 217.259 92.167,220.181 89.725,220.969 88.391 C 222.707 85.450,223.167 79.932,221.899 77.234 C 221.680 76.767,221.499 76.317,221.497 76.234 C 221.495 76.151,221.289 75.782,221.039 75.415 C 218.503 71.692,215.478 70.377,211.083 71.087 M252.057 71.183 C 251.585 71.261,250.842 71.515,250.407 71.746 C 249.973 71.978,249.528 72.167,249.419 72.167 C 249.093 72.167,246.383 74.870,246.077 75.500 C 245.921 75.821,245.697 76.196,245.580 76.333 C 245.463 76.471,245.252 76.996,245.112 77.500 C 244.971 78.004,244.733 78.829,244.583 79.333 C 243.958 81.433,244.671 86.143,245.838 87.627 C 246.019 87.857,246.167 88.137,246.167 88.249 C 246.167 88.361,246.759 89.044,247.483 89.768 C 252.148 94.429,259.523 93.761,263.202 88.344 C 263.549 87.834,263.833 87.330,263.833 87.224 C 263.833 87.118,264.034 86.644,264.279 86.172 C 264.799 85.169,265.041 80.992,264.687 79.103 C 264.242 76.730,262.715 74.452,260.301 72.566 C 258.644 71.270,255.096 70.675,252.057 71.183 M63.667 83.492 C 62.521 83.565,60.833 83.742,59.917 83.886 C 59.000 84.030,57.500 84.232,56.583 84.337 C 55.667 84.441,54.354 84.665,53.667 84.836 C 52.979 85.006,52.004 85.196,51.500 85.258 C 48.598 85.615,46.987 87.300,47.475 89.469 C 47.808 90.952,49.695 92.074,51.216 91.694 C 51.601 91.598,52.640 91.404,53.524 91.262 C 54.408 91.121,55.323 90.932,55.557 90.843 C 55.791 90.755,57.032 90.566,58.315 90.424 C 59.598 90.283,61.046 90.073,61.532 89.959 C 63.005 89.612,74.376 89.670,76.083 90.034 C 76.817 90.190,78.074 90.394,78.878 90.487 C 79.682 90.579,80.695 90.771,81.128 90.912 C 81.562 91.053,82.517 91.322,83.250 91.509 C 85.792 92.160,86.849 92.472,87.049 92.631 C 87.159 92.718,87.550 92.878,87.917 92.986 C 88.661 93.204,89.051 93.379,91.911 94.774 C 93.007 95.309,94.161 95.920,94.473 96.132 C 96.462 97.482,98.445 97.156,99.596 95.291 C 100.701 93.501,99.839 91.858,97.000 90.341 C 95.633 89.611,92.019 87.833,91.901 87.833 C 91.830 87.833,91.467 87.686,91.094 87.505 C 90.319 87.130,88.976 86.647,87.167 86.094 C 86.479 85.883,85.718 85.631,85.474 85.532 C 85.231 85.434,84.556 85.269,83.974 85.166 C 83.393 85.062,82.608 84.874,82.231 84.748 C 81.854 84.622,80.712 84.403,79.694 84.261 C 78.675 84.119,77.146 83.889,76.296 83.749 C 74.458 83.448,66.803 83.292,63.667 83.492 " stroke="none" fill="#000000" fill-rule="evenodd"></path><path id="path1" d="M18.167 0.250 C 18.167 0.451,17.909 0.500,16.845 0.500 C 15.601 0.500,15.520 0.522,15.470 0.875 C 15.426 1.184,15.299 1.258,14.750 1.293 C 13.476 1.374,13.021 1.506,12.921 1.821 C 12.852 2.036,12.593 2.165,12.069 2.243 C 11.480 2.332,11.283 2.444,11.162 2.761 C 11.055 3.043,10.880 3.167,10.587 3.167 C 10.250 3.167,10.167 3.249,10.167 3.583 C 10.167 3.950,10.095 4.000,9.571 4.000 C 8.997 4.000,8.500 4.298,8.500 4.643 C 8.500 4.735,8.331 4.834,8.125 4.863 C 7.919 4.893,7.675 5.089,7.583 5.299 C 7.492 5.509,7.248 5.723,7.042 5.775 C 6.784 5.840,6.667 5.994,6.667 6.268 C 6.667 6.582,6.578 6.667,6.250 6.667 C 5.948 6.667,5.833 6.756,5.833 6.991 C 5.833 7.180,5.643 7.406,5.375 7.534 C 5.116 7.658,4.893 7.916,4.863 8.127 C 4.834 8.332,4.730 8.500,4.632 8.500 C 4.324 8.500,4.011 9.062,4.005 9.625 C 4.001 10.090,3.941 10.167,3.583 10.167 C 3.258 10.167,3.167 10.252,3.167 10.557 C 3.167 10.808,3.023 11.012,2.762 11.131 C 2.451 11.272,2.330 11.493,2.243 12.075 C 2.169 12.563,2.045 12.833,1.894 12.833 C 1.559 12.833,1.333 13.542,1.333 14.594 C 1.333 15.092,1.277 15.491,1.208 15.480 C 0.554 15.377,0.500 15.481,0.500 16.833 C 0.500 17.907,0.451 18.167,0.250 18.167 C 0.028 18.167,0.000 24.370,0.000 73.000 C 0.000 121.630,0.028 127.833,0.250 127.833 C 0.455 127.833,0.500 128.121,0.500 129.421 C 0.500 130.951,0.515 131.014,0.907 131.163 C 1.249 131.293,1.323 131.446,1.366 132.117 C 1.409 132.801,1.471 132.924,1.792 132.970 C 2.113 133.016,2.167 133.124,2.167 133.728 C 2.167 134.481,2.387 134.833,2.858 134.833 C 3.086 134.833,3.159 135.002,3.199 135.625 C 3.243 136.301,3.305 136.424,3.625 136.470 C 3.895 136.508,4.000 136.635,4.000 136.925 C 4.000 137.212,4.116 137.356,4.407 137.429 C 4.655 137.491,4.834 137.672,4.865 137.891 C 4.897 138.110,5.056 138.270,5.275 138.301 C 5.539 138.339,5.663 138.510,5.745 138.950 C 5.893 139.738,6.182 140.000,6.905 140.000 C 7.427 140.000,7.500 140.050,7.500 140.413 C 7.500 140.713,7.612 140.855,7.907 140.929 C 8.155 140.991,8.334 141.172,8.365 141.391 C 8.401 141.643,8.554 141.766,8.875 141.803 C 9.235 141.844,9.333 141.942,9.333 142.261 C 9.333 142.605,9.413 142.667,9.861 142.667 C 10.151 142.667,10.342 142.714,10.284 142.772 C 10.007 143.048,10.537 143.483,11.209 143.532 C 11.786 143.574,11.926 143.649,11.968 143.941 C 12.020 144.309,12.419 144.494,13.169 144.498 C 13.442 144.499,13.645 144.630,13.752 144.875 C 13.897 145.206,14.056 145.256,15.114 145.299 C 16.205 145.343,16.317 145.380,16.364 145.715 C 16.414 146.064,16.507 146.086,18.125 146.131 C 19.493 146.169,19.833 146.227,19.833 146.422 C 19.833 146.637,41.875 146.667,200.000 146.667 C 360.037 146.667,380.167 146.639,380.167 146.417 C 380.167 146.210,380.472 146.167,381.917 146.167 C 383.664 146.167,383.667 146.166,383.667 145.757 C 383.667 145.361,383.711 145.346,384.958 145.299 C 386.154 145.254,386.254 145.222,386.303 144.875 C 386.346 144.574,386.470 144.496,386.928 144.479 C 387.837 144.446,387.871 144.434,388.065 144.083 C 388.167 143.900,388.270 143.717,388.295 143.677 C 388.319 143.638,388.657 143.563,389.045 143.511 C 389.614 143.435,389.760 143.345,389.803 143.042 C 389.842 142.770,389.968 142.667,390.262 142.667 C 390.631 142.667,390.763 142.445,390.686 141.958 C 390.676 141.890,390.849 141.833,391.072 141.833 C 391.715 141.833,392.295 141.549,392.414 141.176 C 392.473 140.988,392.598 140.833,392.690 140.833 C 392.911 140.833,393.333 140.404,393.333 140.179 C 393.333 140.080,393.414 140.000,393.512 140.000 C 393.729 140.000,394.167 139.581,394.167 139.373 C 394.167 139.291,394.355 139.122,394.586 138.999 C 394.882 138.840,395.036 138.586,395.108 138.135 C 395.186 137.644,395.302 137.472,395.605 137.396 C 395.883 137.327,396.000 137.179,396.000 136.899 C 396.000 136.585,396.088 136.500,396.417 136.500 C 396.742 136.500,396.833 136.415,396.833 136.110 C 396.833 135.859,396.977 135.655,397.238 135.536 C 397.549 135.394,397.670 135.173,397.757 134.592 C 397.831 134.104,397.955 133.833,398.106 133.833 C 398.433 133.833,398.667 133.132,398.667 132.156 C 398.667 131.703,398.742 131.324,398.833 131.313 C 398.925 131.301,399.094 131.282,399.208 131.271 C 399.351 131.257,399.432 130.840,399.465 129.958 C 399.503 128.960,399.569 128.667,399.757 128.667 C 399.969 128.667,400.000 121.698,400.000 73.333 C 400.000 24.259,399.972 18.000,399.750 18.000 C 399.547 18.000,399.500 17.726,399.497 16.542 C 399.495 15.018,399.433 14.793,398.968 14.622 C 398.768 14.548,398.671 14.285,398.634 13.717 C 398.591 13.033,398.529 12.909,398.208 12.863 C 397.911 12.821,397.832 12.701,397.827 12.280 C 397.821 11.743,397.521 11.031,397.292 11.011 C 397.223 11.005,397.092 11.000,397.000 11.000 C 396.908 11.000,396.833 10.813,396.833 10.583 C 396.833 10.250,396.750 10.167,396.417 10.167 C 396.034 10.167,396.000 10.105,396.000 9.423 C 396.000 8.733,395.580 8.142,395.294 8.428 C 395.248 8.474,395.165 8.284,395.109 8.006 C 395.039 7.654,394.911 7.500,394.689 7.500 C 394.487 7.500,394.331 7.346,394.265 7.083 C 394.189 6.783,394.048 6.667,393.758 6.667 C 393.443 6.667,393.344 6.567,393.303 6.208 C 393.274 5.956,393.156 5.741,393.042 5.729 C 392.927 5.718,392.758 5.699,392.667 5.688 C 392.575 5.676,392.500 5.523,392.500 5.347 C 392.500 5.126,392.344 4.992,392.000 4.917 C 391.725 4.856,391.500 4.732,391.500 4.642 C 391.500 4.298,391.002 4.000,390.429 4.000 C 389.905 4.000,389.833 3.950,389.833 3.583 C 389.833 3.249,389.750 3.167,389.413 3.167 C 389.120 3.167,388.945 3.043,388.838 2.761 C 388.717 2.444,388.520 2.332,387.925 2.243 C 387.352 2.157,387.167 2.056,387.167 1.832 C 387.167 1.442,386.841 1.333,385.671 1.333 C 384.777 1.333,384.695 1.301,384.598 0.917 C 384.498 0.519,384.438 0.500,383.247 0.500 C 382.250 0.500,382.000 0.450,382.000 0.250 C 382.000 0.028,361.676 0.000,200.083 0.000 C 38.491 0.000,18.167 0.028,18.167 0.250 M376.083 3.308 C 379.009 3.539,382.262 4.228,383.833 4.949 C 387.772 6.757,388.055 6.947,390.597 9.500 C 392.612 11.524,392.675 11.596,393.260 12.548 C 393.529 12.988,393.928 13.623,394.146 13.962 C 394.364 14.300,394.646 14.871,394.773 15.232 C 394.900 15.593,395.076 15.975,395.164 16.080 C 395.252 16.186,395.443 16.787,395.589 17.414 C 395.734 18.042,395.956 18.753,396.081 18.995 C 396.315 19.449,396.776 22.826,397.002 25.750 C 397.177 28.006,397.175 118.437,397.000 120.750 C 396.773 123.758,396.326 127.031,396.076 127.514 C 395.948 127.762,395.761 128.330,395.662 128.775 C 395.563 129.219,395.309 129.958,395.098 130.417 C 394.887 130.875,394.630 131.438,394.527 131.667 C 394.425 131.896,394.170 132.350,393.962 132.677 C 393.754 133.003,393.420 133.528,393.220 133.844 C 391.751 136.164,389.618 138.245,387.330 139.590 C 387.168 139.685,386.924 139.855,386.788 139.968 C 386.441 140.257,384.382 141.241,383.583 141.501 C 383.217 141.620,382.767 141.812,382.583 141.929 C 382.400 142.045,381.875 142.192,381.417 142.254 C 380.958 142.316,380.021 142.512,379.333 142.688 C 378.371 142.935,377.047 143.048,373.583 143.178 C 367.531 143.407,24.370 143.279,22.833 143.048 C 20.800 142.743,18.084 142.123,17.500 141.832 C 17.179 141.672,16.654 141.484,16.333 141.415 C 16.012 141.346,15.225 140.990,14.583 140.624 C 13.942 140.258,13.164 139.814,12.854 139.637 C 12.545 139.460,12.192 139.226,12.070 139.116 C 11.947 139.006,11.495 138.654,11.064 138.333 C 10.101 137.616,8.437 135.952,7.897 135.167 C 7.676 134.846,7.197 134.171,6.831 133.667 C 6.466 133.162,6.167 132.671,6.167 132.574 C 6.167 132.477,5.979 132.144,5.750 131.833 C 5.521 131.523,5.333 131.144,5.333 130.992 C 5.333 130.841,5.146 130.364,4.917 129.934 C 4.689 129.504,4.453 128.837,4.394 128.451 C 4.334 128.065,4.149 127.397,3.982 126.966 C 3.776 126.436,3.618 125.326,3.496 123.549 C 3.396 122.101,3.240 120.542,3.149 120.083 C 3.041 119.539,3.005 103.200,3.045 73.000 C 3.108 25.499,3.145 22.851,3.762 20.500 C 3.895 19.996,4.114 19.058,4.251 18.417 C 4.387 17.775,4.647 16.950,4.830 16.583 C 5.012 16.217,5.273 15.654,5.410 15.333 C 5.548 15.012,5.737 14.637,5.830 14.500 C 5.924 14.362,6.077 14.063,6.171 13.833 C 6.265 13.604,6.525 13.154,6.749 12.833 C 6.973 12.512,7.328 11.997,7.537 11.687 C 8.029 10.957,10.957 8.029,11.687 7.537 C 11.997 7.328,12.512 6.973,12.833 6.749 C 13.154 6.525,13.604 6.265,13.833 6.171 C 14.063 6.077,14.362 5.924,14.500 5.830 C 14.637 5.737,15.012 5.546,15.333 5.407 C 15.654 5.269,16.225 5.008,16.601 4.828 C 16.978 4.648,17.653 4.430,18.101 4.343 C 18.550 4.257,19.254 4.065,19.667 3.916 C 20.120 3.752,21.440 3.579,23.000 3.479 C 24.421 3.388,25.883 3.251,26.250 3.176 C 27.438 2.933,372.986 3.063,376.083 3.308 M171.978 15.375 C 171.130 16.183,170.662 17.665,171.048 18.319 C 171.205 18.584,171.333 18.907,171.333 19.036 C 171.333 20.108,174.533 20.792,175.490 19.926 C 175.991 19.473,176.667 18.069,176.667 17.483 C 176.667 15.370,173.485 13.939,171.978 15.375 M175.087 15.931 C 177.185 18.029,174.453 21.242,172.273 19.241 L 171.630 18.650 171.697 17.462 C 171.743 16.643,171.836 16.249,171.996 16.196 C 172.123 16.153,172.382 15.951,172.572 15.746 C 173.241 15.024,174.255 15.099,175.087 15.931 M154.762 15.929 C 154.294 16.396,154.372 37.206,154.844 37.677 C 155.282 38.116,168.031 38.126,168.558 37.688 C 168.781 37.503,168.833 37.137,168.833 35.761 C 168.833 33.234,169.231 33.427,163.891 33.362 C 160.702 33.324,159.385 33.252,159.296 33.112 C 159.228 33.005,159.171 29.125,159.169 24.492 C 159.167 18.164,159.117 16.017,158.967 15.867 C 158.644 15.544,155.095 15.596,154.762 15.929 M158.704 24.931 L 158.750 33.696 159.143 34.015 C 159.507 34.309,159.848 34.333,163.613 34.333 C 168.555 34.333,168.333 34.255,168.333 35.998 L 168.333 37.318 167.792 37.415 C 167.494 37.469,164.512 37.491,161.167 37.465 L 155.083 37.417 155.040 26.792 L 154.998 16.167 156.828 16.167 L 158.658 16.167 158.704 24.931 M195.205 18.542 C 195.111 18.656,195.007 19.350,194.972 20.083 C 194.894 21.735,194.371 22.407,192.954 22.675 C 191.730 22.908,191.667 23.001,191.667 24.583 C 191.667 26.160,191.771 26.321,192.868 26.442 C 194.492 26.621,194.333 26.239,194.335 29.962 C 194.339 36.138,195.483 37.833,199.646 37.833 C 202.135 37.833,202.187 37.800,202.295 36.114 C 202.393 34.588,202.114 33.958,201.365 34.016 C 199.495 34.160,199.333 33.822,199.333 29.790 C 199.333 26.283,199.235 26.500,200.821 26.500 C 202.156 26.500,202.333 26.272,202.333 24.554 C 202.333 22.891,202.150 22.667,200.792 22.667 C 199.296 22.667,199.333 22.718,199.333 20.658 C 199.333 18.981,199.307 18.834,198.963 18.593 C 198.487 18.260,195.468 18.219,195.205 18.542 M198.463 20.692 C 198.519 23.013,198.508 22.998,200.327 23.122 L 201.667 23.214 201.667 24.583 L 201.667 25.952 200.299 26.046 C 198.437 26.174,198.500 26.037,198.500 29.916 C 198.500 33.772,198.786 34.487,200.333 34.500 C 201.541 34.510,201.667 34.613,201.667 35.593 C 201.667 37.460,199.894 38.050,197.605 36.944 C 195.373 35.866,195.170 35.250,195.168 29.548 C 195.166 26.067,195.251 26.248,193.541 26.035 L 192.583 25.915 192.583 24.586 L 192.583 23.258 193.413 23.119 C 194.894 22.870,195.386 22.181,195.471 20.237 L 195.540 18.654 196.978 18.702 L 198.417 18.750 198.463 20.692 M171.595 22.929 C 171.214 23.310,171.196 37.346,171.577 37.662 C 172.003 38.015,175.075 38.098,175.576 37.770 L 176.000 37.492 176.000 30.341 C 176.000 21.861,176.245 22.667,173.667 22.667 C 172.244 22.667,171.801 22.723,171.595 22.929 M182.792 22.815 C 182.449 22.888,182.036 23.059,181.876 23.196 C 181.715 23.333,181.358 23.540,181.083 23.657 C 180.030 24.103,179.461 25.051,178.825 27.417 C 178.422 28.913,180.616 31.385,182.623 31.696 C 183.243 31.792,184.028 32.012,184.368 32.185 C 184.708 32.358,185.200 32.500,185.460 32.500 C 186.053 32.500,186.333 32.772,186.333 33.346 C 186.333 34.588,183.481 34.629,182.895 33.395 C 182.509 32.582,181.920 32.354,180.654 32.527 C 178.927 32.763,178.064 33.547,178.703 34.298 C 178.836 34.455,179.037 34.816,179.150 35.101 C 179.653 36.377,181.790 37.736,183.500 37.868 C 185.393 38.014,187.611 37.776,188.041 37.382 C 188.248 37.193,188.568 36.993,188.752 36.937 C 189.650 36.666,190.795 34.914,190.835 33.750 C 190.900 31.823,190.852 31.571,190.286 30.855 C 189.332 29.649,188.615 29.173,187.363 28.912 C 186.732 28.780,185.999 28.559,185.733 28.421 C 185.467 28.282,185.041 28.168,184.786 28.168 C 184.035 28.166,183.113 27.713,183.232 27.404 C 183.288 27.258,183.333 27.042,183.333 26.923 C 183.333 26.278,185.893 26.138,186.245 26.764 C 186.915 27.958,187.716 28.242,188.790 27.667 C 189.132 27.483,189.607 27.333,189.847 27.333 C 191.656 27.333,190.448 24.694,188.002 23.305 C 187.022 22.748,184.314 22.494,182.792 22.815 M209.317 22.812 C 208.988 22.882,208.551 23.095,208.347 23.284 C 208.144 23.474,207.776 23.670,207.530 23.719 C 206.919 23.841,205.191 25.589,204.812 26.469 C 204.642 26.864,204.394 27.296,204.261 27.429 C 203.715 27.976,203.659 32.676,204.192 33.275 C 204.343 33.445,204.575 33.846,204.708 34.167 C 205.002 34.879,206.811 36.586,207.738 37.026 C 208.111 37.203,208.630 37.464,208.890 37.607 C 209.615 38.003,213.923 37.985,214.693 37.582 C 214.999 37.421,215.512 37.157,215.833 36.994 C 216.593 36.609,218.000 35.368,218.000 35.082 C 218.000 34.959,218.195 34.627,218.434 34.343 C 219.366 33.236,218.475 32.501,216.136 32.447 C 214.940 32.420,214.788 32.452,214.530 32.794 C 214.181 33.255,212.402 34.165,211.847 34.166 C 210.854 34.168,208.287 32.479,208.575 32.014 C 208.651 31.891,210.247 31.833,213.561 31.833 C 219.538 31.833,219.066 32.039,218.955 29.488 C 218.867 27.478,218.491 26.363,217.558 25.354 C 217.361 25.141,217.136 24.897,217.058 24.813 C 215.451 23.068,212.136 22.211,209.317 22.812 M222.595 22.929 C 222.214 23.310,222.196 37.346,222.577 37.662 C 223.003 38.015,226.075 38.098,226.576 37.770 L 227.000 37.492 227.000 33.026 L 227.000 28.559 227.458 27.955 C 228.483 26.605,229.718 26.150,230.500 26.834 C 230.729 27.034,231.113 27.301,231.353 27.425 C 231.961 27.742,232.000 28.083,232.000 33.084 C 232.000 36.722,232.041 37.493,232.244 37.662 C 232.678 38.022,235.742 38.098,236.256 37.761 L 236.693 37.475 236.638 31.855 C 236.586 26.552,236.565 26.208,236.250 25.762 C 236.067 25.502,235.836 25.151,235.736 24.981 C 235.533 24.635,234.723 23.839,234.314 23.585 C 234.165 23.492,233.831 23.267,233.571 23.083 C 232.692 22.464,229.355 22.600,228.135 23.306 L 227.186 23.854 226.933 23.364 C 226.598 22.716,226.425 22.667,224.498 22.667 C 223.229 22.667,222.798 22.726,222.595 22.929 M253.083 22.808 C 250.810 23.228,248.573 25.111,247.510 27.500 C 246.936 28.792,246.814 31.737,247.303 32.547 C 247.481 32.842,247.719 33.374,247.833 33.730 C 248.402 35.506,251.579 37.700,253.833 37.871 C 255.607 38.006,257.710 37.776,258.267 37.387 C 258.533 37.201,258.946 37.001,259.185 36.944 C 259.808 36.793,262.000 34.673,262.000 34.221 C 262.000 34.022,262.206 33.614,262.458 33.314 C 263.180 32.457,263.160 28.549,262.427 27.071 C 261.710 25.627,259.819 23.667,259.144 23.667 C 259.029 23.667,258.659 23.476,258.323 23.243 C 257.660 22.783,254.595 22.529,253.083 22.808 M265.667 23.000 C 265.249 23.417,265.136 36.999,265.545 37.559 C 265.713 37.788,266.115 37.868,267.512 37.947 C 270.194 38.099,269.971 38.526,270.032 33.124 L 270.083 28.583 270.547 27.977 C 271.708 26.459,272.622 26.216,273.922 27.079 C 275.061 27.835,275.000 27.517,275.000 32.732 C 275.000 36.133,275.053 37.342,275.211 37.559 C 275.487 37.936,278.718 38.163,279.309 37.846 L 279.683 37.646 279.633 31.858 L 279.583 26.069 279.167 25.514 C 278.633 24.802,277.531 23.700,276.821 23.168 C 275.917 22.491,272.580 22.540,271.258 23.250 L 270.328 23.750 269.902 23.208 L 269.476 22.667 267.738 22.667 C 266.222 22.667,265.957 22.709,265.667 23.000 M175.500 30.333 L 175.500 37.500 174.042 37.498 C 173.240 37.496,172.415 37.450,172.208 37.395 L 171.833 37.294 171.833 30.342 C 171.833 26.518,171.883 23.339,171.944 23.278 C 172.006 23.217,172.831 23.167,173.778 23.167 L 175.500 23.167 175.500 30.333 M187.369 23.740 C 188.208 24.040,188.689 24.307,188.753 24.508 C 188.806 24.678,188.982 24.858,189.142 24.909 C 189.726 25.094,190.059 26.748,189.542 26.891 C 188.195 27.263,187.662 27.202,186.991 26.595 C 186.629 26.268,186.229 26.000,186.103 26.000 C 185.977 26.000,185.781 25.887,185.667 25.750 C 185.310 25.321,184.269 25.442,183.425 26.012 C 181.611 27.236,182.721 28.755,185.728 29.166 C 186.708 29.300,187.391 29.485,187.647 29.687 C 187.866 29.859,188.163 30.000,188.307 30.000 C 188.585 30.000,189.833 31.131,189.833 31.383 C 189.833 31.464,189.983 31.721,190.167 31.955 C 190.620 32.530,190.613 33.645,190.153 34.230 C 189.961 34.473,189.733 34.933,189.645 35.253 C 189.556 35.572,189.380 35.833,189.252 35.833 C 189.124 35.833,188.920 35.974,188.800 36.146 C 188.679 36.319,188.208 36.586,187.753 36.741 C 187.297 36.895,186.818 37.110,186.687 37.219 C 186.372 37.480,183.468 37.484,183.151 37.224 C 183.022 37.119,182.560 36.928,182.123 36.802 C 180.138 36.226,178.531 33.516,180.167 33.502 C 180.396 33.500,180.793 33.389,181.048 33.255 C 181.472 33.034,181.542 33.042,181.840 33.340 C 182.020 33.520,182.233 33.667,182.314 33.667 C 182.395 33.667,182.496 33.800,182.539 33.963 C 182.764 34.824,184.788 35.358,185.808 34.827 C 188.085 33.640,187.097 31.753,184.017 31.405 C 183.378 31.333,182.576 31.095,182.017 30.811 C 181.503 30.551,180.990 30.337,180.875 30.335 C 180.760 30.334,180.667 30.261,180.667 30.172 C 180.667 30.084,180.423 29.734,180.125 29.395 C 179.407 28.577,179.310 26.484,179.958 25.794 C 180.165 25.575,180.333 25.333,180.333 25.256 C 180.333 24.931,181.475 24.056,182.165 23.851 C 182.577 23.729,183.065 23.521,183.249 23.390 C 183.776 23.013,185.826 23.187,187.369 23.740 M213.270 23.408 C 213.459 23.540,213.982 23.739,214.432 23.850 C 214.882 23.961,215.496 24.266,215.797 24.526 C 216.099 24.787,216.455 25.000,216.589 25.000 C 216.723 25.000,216.833 25.121,216.833 25.270 C 216.833 25.418,217.058 25.796,217.333 26.109 C 217.608 26.422,217.833 26.847,217.833 27.054 C 217.833 27.260,217.990 27.727,218.181 28.090 C 218.434 28.568,218.537 29.094,218.556 30.000 L 218.583 31.250 213.466 31.333 C 207.853 31.425,207.885 31.418,208.070 32.405 C 208.158 32.875,208.380 33.151,209.120 33.709 L 210.057 34.417 211.823 34.417 L 213.589 34.417 214.596 33.625 C 215.712 32.748,215.771 32.731,216.445 33.073 C 216.704 33.205,217.152 33.398,217.439 33.502 C 217.938 33.683,217.953 33.715,217.773 34.201 C 217.558 34.780,216.654 35.833,216.373 35.833 C 216.270 35.833,216.086 35.976,215.964 36.150 C 215.842 36.324,215.418 36.554,215.023 36.661 C 214.627 36.767,214.007 37.009,213.645 37.198 C 212.902 37.585,210.417 37.582,209.949 37.193 C 209.815 37.083,209.291 36.884,208.783 36.752 C 207.873 36.515,207.715 36.407,206.341 35.083 C 205.320 34.101,205.231 33.979,205.004 33.250 C 204.890 32.883,204.687 32.410,204.554 32.198 C 204.224 31.672,204.215 29.125,204.541 28.618 C 204.672 28.416,204.884 27.886,205.014 27.442 C 205.143 26.998,205.380 26.564,205.541 26.478 C 205.702 26.392,205.833 26.227,205.833 26.112 C 205.833 25.996,206.137 25.642,206.508 25.326 C 206.879 25.009,207.347 24.597,207.549 24.411 C 207.751 24.224,208.345 23.940,208.869 23.779 C 209.393 23.618,209.866 23.415,209.921 23.327 C 210.084 23.062,212.873 23.130,213.270 23.408 M226.333 23.830 C 226.442 24.587,227.136 24.897,227.661 24.422 C 229.917 22.380,234.656 23.283,235.500 25.917 C 235.618 26.283,235.816 26.731,235.940 26.912 C 236.119 27.172,236.167 28.322,236.167 32.370 L 236.167 37.500 234.708 37.498 C 232.267 37.494,232.526 38.083,232.467 32.404 L 232.417 27.509 231.828 26.937 C 230.544 25.690,228.670 25.728,227.391 27.025 L 226.583 27.846 226.532 32.673 L 226.481 37.500 225.032 37.498 C 224.235 37.496,223.415 37.450,223.208 37.395 L 222.833 37.294 222.833 30.342 C 222.833 26.518,222.886 23.336,222.950 23.272 C 223.014 23.208,223.783 23.177,224.658 23.203 L 226.250 23.250 226.333 23.830 M256.896 23.491 C 257.312 23.670,257.937 23.868,258.285 23.932 C 258.931 24.051,259.002 24.102,260.388 25.461 C 261.520 26.571,261.566 26.639,261.890 27.703 C 262.049 28.227,262.252 28.700,262.340 28.754 C 262.696 28.974,262.519 31.539,262.087 32.417 C 261.862 32.875,261.675 33.351,261.672 33.474 C 261.663 33.874,260.538 35.162,259.410 36.065 C 259.132 36.288,258.457 36.598,257.910 36.755 C 257.364 36.912,256.816 37.121,256.692 37.221 C 256.322 37.518,254.003 37.458,253.326 37.133 C 253.001 36.978,252.368 36.768,251.919 36.667 C 251.460 36.564,251.004 36.342,250.876 36.159 C 250.750 35.980,250.568 35.833,250.471 35.833 C 250.248 35.833,249.000 34.596,249.000 34.375 C 249.000 34.285,248.845 34.014,248.655 33.773 C 248.466 33.532,248.126 32.662,247.900 31.838 L 247.490 30.342 247.905 28.748 C 248.132 27.872,248.472 26.960,248.659 26.721 C 248.847 26.483,249.000 26.221,249.000 26.139 C 249.000 25.945,250.110 24.833,250.303 24.833 C 250.385 24.833,250.647 24.652,250.887 24.430 C 251.131 24.204,251.710 23.943,252.203 23.838 C 252.687 23.735,253.271 23.545,253.500 23.415 C 254.128 23.059,255.985 23.101,256.896 23.491 M269.472 23.832 C 269.553 24.688,270.190 24.955,270.766 24.375 C 271.319 23.820,273.010 23.271,274.167 23.271 C 275.355 23.271,277.500 24.031,277.500 24.452 C 277.500 24.574,277.678 24.755,277.896 24.854 C 278.146 24.968,278.370 25.288,278.505 25.726 C 278.623 26.106,278.839 26.604,278.985 26.833 C 279.212 27.191,279.250 27.970,279.250 32.333 L 279.250 37.417 278.000 37.468 C 277.313 37.496,276.506 37.474,276.208 37.419 L 275.667 37.318 275.667 33.084 C 275.667 28.099,275.559 27.379,274.721 26.739 C 273.403 25.734,271.691 25.811,270.506 26.929 L 269.750 27.644 269.667 32.530 L 269.583 37.417 268.333 37.468 C 267.646 37.496,266.840 37.474,266.542 37.419 L 266.000 37.318 266.000 30.237 L 266.000 23.155 267.708 23.203 L 269.417 23.250 269.472 23.832 M211.000 25.947 C 209.682 26.136,209.488 26.218,208.848 26.858 C 208.055 27.651,207.884 28.670,208.489 28.994 C 208.914 29.221,214.086 29.221,214.511 28.994 C 215.557 28.434,214.320 26.270,212.846 26.080 C 212.426 26.026,211.933 25.961,211.750 25.935 C 211.567 25.909,211.229 25.914,211.000 25.947 M254.167 26.149 C 253.442 26.307,252.000 27.272,252.000 27.600 C 252.000 27.734,251.891 27.886,251.758 27.937 C 251.055 28.206,250.940 31.794,251.610 32.538 C 251.797 32.746,251.997 33.050,252.055 33.212 C 252.112 33.375,252.292 33.555,252.455 33.612 C 252.617 33.669,252.922 33.872,253.133 34.062 C 254.650 35.428,258.447 33.888,258.757 31.780 C 259.323 27.928,257.316 25.465,254.167 26.149 M213.476 27.040 C 214.794 28.053,214.503 28.250,211.685 28.250 C 208.794 28.250,208.517 28.099,209.577 27.100 C 210.502 26.228,212.381 26.199,213.476 27.040 M255.988 26.823 C 256.193 27.001,256.569 27.192,256.823 27.248 C 257.935 27.492,258.969 31.523,258.075 32.131 C 257.979 32.197,257.730 32.494,257.522 32.792 C 257.314 33.090,257.014 33.333,256.854 33.333 C 256.695 33.333,256.316 33.517,256.011 33.742 C 254.490 34.864,251.667 32.656,251.667 30.343 C 251.667 29.533,252.497 27.547,252.894 27.409 C 253.300 27.268,253.936 26.975,254.333 26.745 C 254.912 26.411,255.548 26.441,255.988 26.823 " stroke="none" fill="#a6a6a6" fill-rule="evenodd"></path><path id="path2" d="M173.250 15.296 C 173.067 15.339,172.762 15.541,172.572 15.746 C 172.382 15.951,172.123 16.153,171.996 16.196 C 171.836 16.249,171.743 16.643,171.697 17.462 L 171.630 18.650 172.273 19.241 C 173.946 20.777,176.252 19.286,175.749 16.994 C 175.522 15.960,174.214 15.072,173.250 15.296 M155.040 26.792 L 155.083 37.417 161.167 37.465 C 164.512 37.491,167.494 37.469,167.792 37.415 L 168.333 37.318 168.333 35.998 C 168.333 34.255,168.555 34.333,163.613 34.333 C 159.848 34.333,159.507 34.309,159.143 34.015 L 158.750 33.696 158.704 24.931 L 158.658 16.167 156.828 16.167 L 154.998 16.167 155.040 26.792 M195.471 20.237 C 195.386 22.181,194.894 22.870,193.413 23.119 L 192.583 23.258 192.583 24.586 L 192.583 25.915 193.541 26.035 C 195.251 26.248,195.166 26.067,195.168 29.548 C 195.170 35.250,195.373 35.866,197.605 36.944 C 199.894 38.050,201.667 37.460,201.667 35.593 C 201.667 34.613,201.541 34.510,200.333 34.500 C 198.786 34.487,198.500 33.772,198.500 29.916 C 198.500 26.037,198.437 26.174,200.299 26.046 L 201.667 25.952 201.667 24.583 L 201.667 23.214 200.327 23.122 C 198.508 22.998,198.519 23.013,198.463 20.692 L 198.417 18.750 196.978 18.702 L 195.540 18.654 195.471 20.237 M171.944 23.278 C 171.883 23.339,171.833 26.518,171.833 30.342 L 171.833 37.294 172.208 37.395 C 172.415 37.450,173.240 37.496,174.042 37.498 L 175.500 37.500 175.500 30.333 L 175.500 23.167 173.778 23.167 C 172.831 23.167,172.006 23.217,171.944 23.278 M183.249 23.390 C 183.065 23.521,182.577 23.729,182.165 23.851 C 181.475 24.056,180.333 24.931,180.333 25.256 C 180.333 25.333,180.165 25.575,179.958 25.794 C 179.310 26.484,179.407 28.577,180.125 29.395 C 180.423 29.734,180.667 30.084,180.667 30.172 C 180.667 30.261,180.760 30.334,180.875 30.335 C 180.990 30.337,181.503 30.551,182.017 30.811 C 182.576 31.095,183.378 31.333,184.017 31.405 C 187.097 31.753,188.085 33.640,185.808 34.827 C 184.788 35.358,182.764 34.824,182.539 33.963 C 182.496 33.800,182.395 33.667,182.314 33.667 C 182.233 33.667,182.020 33.520,181.840 33.340 C 181.542 33.042,181.472 33.034,181.048 33.255 C 180.793 33.389,180.396 33.500,180.167 33.502 C 178.531 33.516,180.138 36.226,182.123 36.802 C 182.560 36.928,183.022 37.119,183.151 37.224 C 183.468 37.484,186.372 37.480,186.687 37.219 C 186.818 37.110,187.297 36.895,187.753 36.741 C 188.208 36.586,188.679 36.319,188.800 36.146 C 188.920 35.974,189.124 35.833,189.252 35.833 C 189.380 35.833,189.556 35.572,189.645 35.253 C 189.733 34.933,189.961 34.473,190.153 34.230 C 190.613 33.645,190.620 32.530,190.167 31.955 C 189.983 31.721,189.833 31.464,189.833 31.383 C 189.833 31.131,188.585 30.000,188.307 30.000 C 188.163 30.000,187.866 29.859,187.647 29.687 C 187.391 29.485,186.708 29.300,185.728 29.166 C 182.721 28.755,181.611 27.236,183.425 26.012 C 184.269 25.442,185.310 25.321,185.667 25.750 C 185.781 25.887,185.977 26.000,186.103 26.000 C 186.229 26.000,186.629 26.268,186.991 26.595 C 187.662 27.202,188.195 27.263,189.542 26.891 C 190.059 26.748,189.726 25.094,189.142 24.909 C 188.982 24.858,188.806 24.678,188.753 24.508 C 188.497 23.702,184.070 22.803,183.249 23.390 M209.921 23.327 C 209.866 23.415,209.393 23.618,208.869 23.779 C 208.345 23.940,207.751 24.224,207.549 24.411 C 207.347 24.597,206.879 25.009,206.508 25.326 C 206.137 25.642,205.833 25.996,205.833 26.112 C 205.833 26.227,205.702 26.392,205.541 26.478 C 205.380 26.564,205.143 26.998,205.014 27.442 C 204.884 27.886,204.672 28.416,204.541 28.618 C 204.215 29.125,204.224 31.672,204.554 32.198 C 204.687 32.410,204.890 32.883,205.004 33.250 C 205.231 33.979,205.320 34.101,206.341 35.083 C 207.715 36.407,207.873 36.515,208.783 36.752 C 209.291 36.884,209.815 37.083,209.949 37.193 C 210.417 37.582,212.902 37.585,213.645 37.198 C 214.007 37.009,214.627 36.767,215.023 36.661 C 215.418 36.554,215.842 36.324,215.964 36.150 C 216.086 35.976,216.270 35.833,216.373 35.833 C 216.654 35.833,217.558 34.780,217.773 34.201 C 217.953 33.715,217.938 33.683,217.439 33.502 C 217.152 33.398,216.704 33.205,216.445 33.073 C 215.771 32.731,215.712 32.748,214.596 33.625 L 213.589 34.417 211.823 34.417 L 210.057 34.417 209.120 33.709 C 208.380 33.151,208.158 32.875,208.070 32.405 C 207.885 31.418,207.853 31.425,213.466 31.333 L 218.583 31.250 218.556 30.000 C 218.537 29.094,218.434 28.568,218.181 28.090 C 217.990 27.727,217.833 27.260,217.833 27.054 C 217.833 26.847,217.608 26.422,217.333 26.109 C 217.058 25.796,216.833 25.418,216.833 25.270 C 216.833 25.121,216.723 25.000,216.589 25.000 C 216.455 25.000,216.099 24.787,215.797 24.526 C 215.496 24.266,214.882 23.961,214.432 23.850 C 213.982 23.739,213.459 23.540,213.270 23.408 C 212.873 23.130,210.084 23.062,209.921 23.327 M222.950 23.272 C 222.886 23.336,222.833 26.518,222.833 30.342 L 222.833 37.294 223.208 37.395 C 223.415 37.450,224.235 37.496,225.032 37.498 L 226.481 37.500 226.532 32.673 L 226.583 27.846 227.391 27.025 C 228.670 25.728,230.544 25.690,231.828 26.937 L 232.417 27.509 232.467 32.404 C 232.526 38.083,232.267 37.494,234.708 37.498 L 236.167 37.500 236.167 32.370 C 236.167 28.322,236.119 27.172,235.940 26.912 C 235.816 26.731,235.618 26.283,235.500 25.917 C 234.656 23.283,229.917 22.380,227.661 24.422 C 227.136 24.897,226.442 24.587,226.333 23.830 L 226.250 23.250 224.658 23.203 C 223.783 23.177,223.014 23.208,222.950 23.272 M253.500 23.415 C 253.271 23.545,252.687 23.735,252.203 23.838 C 251.710 23.943,251.131 24.204,250.887 24.430 C 250.647 24.652,250.385 24.833,250.303 24.833 C 250.110 24.833,249.000 25.945,249.000 26.139 C 249.000 26.221,248.847 26.483,248.659 26.721 C 248.472 26.960,248.132 27.872,247.905 28.748 L 247.490 30.342 247.900 31.838 C 248.126 32.662,248.466 33.532,248.655 33.773 C 248.845 34.014,249.000 34.285,249.000 34.375 C 249.000 34.596,250.248 35.833,250.471 35.833 C 250.568 35.833,250.750 35.980,250.876 36.159 C 251.004 36.342,251.460 36.564,251.919 36.667 C 252.368 36.768,253.001 36.978,253.326 37.133 C 254.003 37.458,256.322 37.518,256.692 37.221 C 256.816 37.121,257.364 36.912,257.910 36.755 C 258.457 36.598,259.132 36.288,259.410 36.065 C 260.538 35.162,261.663 33.874,261.672 33.474 C 261.675 33.351,261.862 32.875,262.087 32.417 C 262.519 31.539,262.696 28.974,262.340 28.754 C 262.252 28.700,262.049 28.227,261.890 27.703 C 261.566 26.639,261.520 26.571,260.388 25.461 C 259.002 24.102,258.931 24.051,258.285 23.932 C 257.937 23.868,257.312 23.670,256.896 23.491 C 255.985 23.101,254.128 23.059,253.500 23.415 M266.000 30.237 L 266.000 37.318 266.542 37.419 C 266.840 37.474,267.646 37.496,268.333 37.468 L 269.583 37.417 269.667 32.530 L 269.750 27.644 270.506 26.929 C 271.691 25.811,273.403 25.734,274.721 26.739 C 275.559 27.379,275.667 28.099,275.667 33.084 L 275.667 37.318 276.208 37.419 C 276.506 37.474,277.313 37.496,278.000 37.468 L 279.250 37.417 279.250 32.333 C 279.250 27.970,279.212 27.191,278.985 26.833 C 278.839 26.604,278.623 26.106,278.505 25.726 C 278.370 25.288,278.146 24.968,277.896 24.854 C 277.678 24.755,277.500 24.574,277.500 24.452 C 277.500 24.031,275.355 23.271,274.167 23.271 C 273.010 23.271,271.319 23.820,270.766 24.375 C 270.190 24.955,269.553 24.688,269.472 23.832 L 269.417 23.250 267.708 23.203 L 266.000 23.155 266.000 30.237 M212.846 26.080 C 214.320 26.270,215.557 28.434,214.511 28.994 C 214.086 29.221,208.914 29.221,208.489 28.994 C 207.548 28.491,208.729 26.305,210.057 26.091 C 211.165 25.913,211.427 25.889,211.750 25.935 C 211.933 25.961,212.426 26.026,212.846 26.080 M257.159 26.679 C 258.622 27.629,259.129 29.247,258.757 31.780 C 258.447 33.888,254.650 35.428,253.133 34.062 C 252.922 33.872,252.617 33.669,252.455 33.612 C 252.292 33.555,252.112 33.375,252.055 33.212 C 251.997 33.050,251.797 32.746,251.610 32.538 C 250.940 31.794,251.055 28.206,251.758 27.937 C 251.891 27.886,252.000 27.734,252.000 27.600 C 252.000 26.296,255.584 25.656,257.159 26.679 " stroke="none" fill="#ffffff" fill-rule="evenodd"></path><path id="path3" d="M70.667 23.576 C 68.879 23.790,67.214 24.045,66.966 24.143 C 66.718 24.240,65.893 24.429,65.132 24.563 C 64.372 24.696,63.525 24.894,63.250 25.001 C 62.975 25.109,62.262 25.334,61.667 25.502 C 60.219 25.911,58.158 26.635,57.932 26.814 C 57.832 26.894,57.563 27.012,57.333 27.077 C 57.104 27.141,56.542 27.372,56.083 27.590 C 55.625 27.808,54.987 28.100,54.667 28.239 C 53.918 28.565,51.424 29.913,50.667 30.402 C 46.815 32.887,46.037 33.464,43.242 35.909 C 39.591 39.101,34.745 44.953,33.427 47.763 C 33.294 48.046,33.074 48.369,32.937 48.483 C 32.800 48.597,32.642 48.900,32.585 49.158 C 32.529 49.415,32.303 49.869,32.083 50.167 C 31.864 50.464,31.638 50.916,31.583 51.170 C 31.527 51.424,31.335 51.764,31.157 51.925 C 30.979 52.086,30.833 52.346,30.833 52.501 C 30.833 52.656,30.655 53.120,30.436 53.531 C 30.217 53.942,29.985 54.535,29.920 54.848 C 29.854 55.161,29.656 55.669,29.478 55.978 C 29.300 56.287,29.075 56.924,28.977 57.395 C 28.880 57.865,28.690 58.424,28.556 58.636 C 28.421 58.848,28.238 59.486,28.150 60.053 C 28.061 60.620,27.849 61.496,27.679 62.000 C 27.509 62.504,27.316 63.404,27.250 64.000 C 27.185 64.596,26.979 65.796,26.792 66.667 C 26.289 69.021,26.291 77.605,26.795 80.083 C 26.982 81.000,27.188 82.233,27.254 82.824 C 27.320 83.415,27.510 84.293,27.676 84.776 C 27.842 85.259,28.029 86.013,28.093 86.452 C 28.156 86.891,28.386 87.679,28.604 88.203 C 28.822 88.728,29.001 89.290,29.002 89.453 C 29.002 89.616,29.188 90.125,29.413 90.583 C 29.638 91.042,29.826 91.529,29.829 91.667 C 29.832 91.804,30.059 92.367,30.333 92.917 C 30.608 93.467,30.832 94.014,30.833 94.134 C 30.833 94.253,31.021 94.627,31.250 94.964 C 31.479 95.301,31.667 95.700,31.667 95.850 C 31.667 95.999,31.808 96.302,31.982 96.522 C 32.155 96.742,32.419 97.184,32.568 97.503 C 32.717 97.822,33.097 98.496,33.411 99.000 C 33.726 99.504,34.140 100.179,34.331 100.500 C 34.522 100.821,34.903 101.383,35.178 101.750 C 35.452 102.117,35.803 102.604,35.958 102.833 C 36.803 104.088,39.173 106.832,41.000 108.673 C 44.144 111.840,46.939 114.038,50.833 116.405 C 52.170 117.217,53.805 118.117,54.500 118.424 C 54.821 118.565,55.458 118.859,55.917 119.077 C 56.375 119.295,56.938 119.526,57.167 119.590 C 57.396 119.655,57.665 119.773,57.765 119.852 C 58.176 120.179,62.591 121.593,64.500 122.009 C 65.279 122.178,66.329 122.431,66.833 122.569 C 70.782 123.652,82.696 123.659,86.167 122.580 C 86.579 122.451,87.442 122.258,88.083 122.150 C 88.725 122.042,89.550 121.844,89.917 121.709 C 90.283 121.575,91.071 121.329,91.667 121.163 C 92.263 120.996,93.350 120.622,94.083 120.330 C 94.817 120.039,95.717 119.690,96.083 119.554 C 97.160 119.156,101.339 117.029,102.466 116.305 C 102.806 116.087,103.207 115.835,103.359 115.746 C 106.852 113.684,111.607 109.527,114.698 105.833 C 117.115 102.944,117.489 102.464,118.083 101.480 C 118.267 101.177,118.529 100.771,118.667 100.578 C 119.226 99.794,119.665 99.075,119.666 98.941 C 119.666 98.862,119.854 98.575,120.083 98.303 C 120.313 98.031,120.500 97.711,120.500 97.593 C 120.500 97.475,120.638 97.199,120.807 96.981 C 120.975 96.762,121.198 96.336,121.301 96.034 C 121.404 95.732,121.631 95.282,121.807 95.034 C 121.982 94.786,122.177 94.343,122.241 94.049 C 122.304 93.756,122.491 93.343,122.656 93.133 C 122.822 92.922,123.012 92.487,123.080 92.167 C 123.147 91.846,123.336 91.358,123.500 91.083 C 123.663 90.808,123.880 90.187,123.981 89.704 C 124.082 89.220,124.273 88.657,124.404 88.454 C 124.535 88.250,124.730 87.596,124.836 87.001 C 124.942 86.406,125.129 85.680,125.251 85.388 C 125.373 85.096,125.591 84.120,125.735 83.220 C 125.879 82.320,126.109 81.058,126.246 80.417 C 126.606 78.728,126.608 68.258,126.249 66.390 C 126.111 65.671,125.883 64.371,125.744 63.500 C 125.604 62.629,125.342 61.520,125.161 61.035 C 124.981 60.551,124.833 59.971,124.833 59.747 C 124.833 59.523,124.656 58.870,124.439 58.295 C 124.222 57.720,123.914 56.875,123.755 56.417 C 123.039 54.355,122.790 53.733,122.585 53.500 C 122.465 53.362,122.288 52.960,122.191 52.605 C 122.095 52.251,121.909 51.838,121.779 51.689 C 121.649 51.539,121.454 51.141,121.346 50.805 C 121.238 50.469,121.045 50.106,120.917 50.000 C 120.789 49.894,120.594 49.531,120.484 49.195 C 120.375 48.859,120.108 48.371,119.893 48.112 C 119.677 47.853,119.500 47.544,119.500 47.424 C 119.500 47.305,119.382 47.110,119.238 46.990 C 119.094 46.870,118.828 46.505,118.648 46.178 C 118.362 45.660,117.779 44.774,117.378 44.249 C 117.308 44.157,116.912 43.635,116.500 43.089 C 116.087 42.542,115.638 41.972,115.500 41.822 C 115.362 41.672,114.934 41.144,114.547 40.649 C 112.970 38.632,108.666 34.711,105.642 32.536 C 103.380 30.910,101.712 29.917,98.833 28.486 C 95.318 26.739,91.848 25.458,88.667 24.734 C 88.071 24.599,86.946 24.340,86.167 24.160 C 82.114 23.223,75.650 22.979,70.667 23.576 M305.448 47.210 C 303.943 47.839,302.961 48.702,302.185 50.076 C 301.513 51.268,301.400 54.283,302.000 55.045 C 302.183 55.279,302.333 55.548,302.333 55.644 C 302.333 55.740,302.775 56.255,303.314 56.788 C 307.561 60.983,314.169 57.443,313.168 51.508 C 312.869 49.734,311.309 47.693,310.025 47.396 C 309.782 47.340,309.403 47.180,309.182 47.042 C 308.381 46.541,306.889 46.608,305.448 47.210 M330.417 49.117 C 325.866 49.536,322.901 51.715,321.504 55.667 C 321.391 55.987,321.199 56.517,321.077 56.843 C 320.944 57.202,320.828 58.473,320.784 60.062 C 320.697 63.237,320.831 63.061,318.414 63.167 C 315.783 63.282,315.947 63.003,315.985 67.279 C 316.023 71.497,315.862 71.220,318.334 71.334 C 320.980 71.457,320.687 69.645,320.671 85.783 C 320.658 99.115,320.669 99.633,320.973 100.008 C 321.417 100.557,328.982 100.604,329.730 100.063 L 330.163 99.750 330.155 85.945 C 330.148 71.772,330.142 71.907,330.750 71.461 C 330.842 71.394,332.318 71.337,334.031 71.336 L 337.146 71.333 337.728 71.951 C 338.071 72.314,338.388 72.875,338.498 73.311 C 338.601 73.720,338.831 74.240,339.009 74.466 C 339.187 74.693,339.333 74.994,339.333 75.137 C 339.333 75.279,339.479 75.700,339.656 76.072 C 339.965 76.720,340.200 77.294,340.990 79.333 C 341.186 79.837,341.450 80.475,341.578 80.750 C 342.560 82.866,342.833 83.507,342.833 83.699 C 342.833 83.820,343.021 84.272,343.250 84.702 C 343.479 85.133,343.667 85.582,343.667 85.701 C 343.668 85.819,343.892 86.367,344.167 86.917 C 344.441 87.467,344.666 88.018,344.666 88.141 C 344.666 88.264,344.809 88.565,344.983 88.809 C 345.157 89.053,345.388 89.583,345.496 89.986 C 345.605 90.390,345.800 90.883,345.931 91.082 C 346.061 91.280,346.280 91.822,346.418 92.285 C 346.555 92.748,346.780 93.220,346.917 93.334 C 347.054 93.448,347.167 93.702,347.167 93.900 C 347.167 94.097,347.389 94.707,347.661 95.254 C 347.934 95.802,348.159 96.409,348.161 96.603 C 348.164 96.796,348.311 97.139,348.487 97.363 C 351.000 100.557,347.228 104.551,343.083 103.086 C 342.442 102.859,341.795 102.672,341.645 102.670 C 341.496 102.668,341.281 102.554,341.167 102.417 C 340.667 101.815,339.795 102.148,339.407 103.089 C 339.256 103.453,339.038 103.862,338.921 104.000 C 338.804 104.138,338.612 104.550,338.495 104.916 C 338.377 105.282,338.105 105.912,337.890 106.316 C 337.676 106.719,337.500 107.177,337.500 107.332 C 337.500 107.488,337.350 107.751,337.167 107.917 C 336.580 108.447,337.384 109.833,338.278 109.833 C 338.424 109.833,338.779 109.979,339.066 110.156 C 341.978 111.956,349.285 111.846,352.229 109.959 C 353.565 109.103,356.000 106.554,356.000 106.011 C 356.000 105.928,356.177 105.647,356.393 105.388 C 356.608 105.129,356.875 104.641,356.984 104.305 C 357.094 103.969,357.288 103.607,357.414 103.502 C 357.541 103.396,357.695 103.072,357.755 102.780 C 357.816 102.489,358.008 102.002,358.183 101.699 C 358.357 101.396,358.586 100.796,358.690 100.365 C 358.795 99.935,358.991 99.455,359.127 99.298 C 359.263 99.141,359.439 98.667,359.518 98.244 C 359.596 97.822,359.808 97.289,359.989 97.060 C 360.169 96.831,360.366 96.310,360.427 95.903 C 360.488 95.496,360.677 94.986,360.847 94.771 C 361.016 94.555,361.237 94.015,361.336 93.570 C 361.436 93.125,361.664 92.524,361.842 92.236 C 362.021 91.947,362.167 91.562,362.167 91.380 C 362.167 91.198,362.350 90.705,362.574 90.283 C 362.798 89.862,363.034 89.232,363.097 88.883 C 363.161 88.535,363.345 88.062,363.506 87.832 C 363.667 87.602,363.889 87.077,363.999 86.665 C 364.109 86.253,364.266 85.835,364.348 85.735 C 364.430 85.635,364.677 85.035,364.897 84.401 C 365.444 82.828,366.025 81.321,366.657 79.833 C 366.949 79.146,367.302 78.214,367.442 77.763 C 367.582 77.312,367.796 76.787,367.918 76.596 C 368.040 76.406,368.227 75.920,368.333 75.516 C 368.439 75.113,368.671 74.514,368.847 74.186 C 369.023 73.857,369.167 73.467,369.167 73.319 C 369.167 73.171,369.345 72.713,369.564 72.302 C 369.783 71.891,370.016 71.299,370.082 70.986 C 370.148 70.673,370.341 70.189,370.509 69.911 C 370.678 69.633,370.899 69.035,371.001 68.581 C 371.102 68.127,371.290 67.640,371.417 67.500 C 371.544 67.360,371.728 66.885,371.827 66.445 C 371.926 66.005,372.160 65.437,372.348 65.182 C 372.842 64.514,372.741 63.473,372.167 63.315 C 371.640 63.170,364.552 63.131,363.859 63.270 C 363.231 63.396,362.480 64.606,362.190 65.963 C 362.086 66.447,361.889 67.014,361.752 67.223 C 361.616 67.432,361.427 68.006,361.334 68.498 C 361.240 68.991,361.055 69.514,360.922 69.661 C 360.788 69.808,360.573 70.383,360.444 70.938 C 360.314 71.494,360.087 72.133,359.939 72.359 C 359.791 72.585,359.594 73.172,359.500 73.665 C 359.407 74.157,359.225 74.678,359.097 74.822 C 358.968 74.966,358.781 75.527,358.682 76.070 C 358.582 76.612,358.391 77.178,358.256 77.326 C 358.122 77.475,357.926 78.006,357.822 78.507 C 357.719 79.007,357.522 79.593,357.385 79.809 C 357.248 80.025,356.997 80.663,356.828 81.226 C 356.346 82.828,355.831 84.348,355.494 85.167 C 355.325 85.579,355.140 86.272,355.083 86.706 C 354.835 88.608,353.340 88.377,353.334 86.436 C 353.334 86.264,353.191 85.889,353.018 85.603 C 352.845 85.317,352.650 84.821,352.585 84.500 C 352.521 84.179,352.333 83.682,352.168 83.396 C 352.004 83.109,351.816 82.621,351.751 82.312 C 351.687 82.003,351.454 81.437,351.234 81.054 C 351.013 80.671,350.833 80.213,350.833 80.037 C 350.833 79.861,350.650 79.371,350.426 78.950 C 350.202 78.528,349.970 77.898,349.910 77.550 C 349.851 77.202,349.665 76.721,349.496 76.481 C 349.328 76.241,349.139 75.754,349.077 75.398 C 349.014 75.041,348.784 74.437,348.565 74.054 C 348.346 73.671,348.167 73.213,348.167 73.037 C 348.167 72.861,347.983 72.371,347.759 71.950 C 347.535 71.528,347.303 70.898,347.244 70.550 C 347.184 70.202,346.998 69.721,346.830 69.481 C 346.661 69.241,346.472 68.754,346.410 68.398 C 346.347 68.041,346.117 67.437,345.898 67.054 C 345.679 66.671,345.499 66.183,345.498 65.970 C 345.496 65.757,345.386 65.396,345.253 65.167 C 345.120 64.938,344.866 64.442,344.689 64.066 C 344.260 63.158,344.372 63.171,336.720 63.169 C 328.963 63.166,329.268 63.318,330.246 59.954 C 330.980 57.430,334.005 56.418,337.127 57.653 C 338.107 58.041,338.999 58.101,339.300 57.800 C 339.591 57.509,339.583 50.437,339.292 50.218 C 338.212 49.406,333.554 48.829,330.417 49.117 M78.893 50.163 C 80.071 50.260,81.358 50.412,81.753 50.501 C 82.147 50.589,83.499 50.781,84.757 50.926 C 86.015 51.072,87.229 51.262,87.454 51.348 C 87.680 51.433,88.551 51.613,89.391 51.747 C 90.797 51.971,91.717 52.185,94.417 52.918 C 94.967 53.067,95.942 53.331,96.583 53.505 C 98.030 53.895,99.625 54.433,100.854 54.944 C 101.370 55.158,101.895 55.334,102.021 55.335 C 102.147 55.336,102.625 55.521,103.083 55.746 C 103.542 55.972,103.986 56.159,104.070 56.161 C 104.340 56.171,108.035 57.964,109.526 58.810 C 109.952 59.052,110.546 59.389,110.844 59.560 C 116.129 62.576,111.893 70.559,106.500 67.747 C 105.904 67.436,105.042 66.993,104.583 66.762 C 104.125 66.531,103.638 66.273,103.500 66.190 C 102.939 65.849,101.107 65.000,100.934 65.000 C 100.831 65.000,100.410 64.823,99.999 64.607 C 99.587 64.391,99.028 64.161,98.756 64.095 C 98.484 64.029,97.950 63.834,97.568 63.660 C 97.187 63.486,96.519 63.264,96.083 63.167 C 95.648 63.069,95.136 62.906,94.947 62.805 C 94.592 62.615,92.228 61.957,90.750 61.637 C 90.292 61.538,89.504 61.352,89.000 61.225 C 88.110 61.000,87.446 60.877,83.250 60.164 C 81.250 59.824,77.468 59.481,72.023 59.147 C 68.136 58.908,59.455 59.450,55.583 60.174 C 54.575 60.362,53.188 60.621,52.500 60.748 C 50.998 61.027,49.442 61.412,48.072 61.846 C 44.652 62.929,41.467 60.161,42.026 56.591 C 42.343 54.572,43.834 53.121,46.057 52.668 C 46.593 52.559,47.283 52.365,47.591 52.236 C 47.898 52.108,48.772 51.897,49.533 51.768 C 50.294 51.639,51.404 51.419,52.000 51.278 C 52.596 51.137,53.983 50.898,55.083 50.746 C 56.183 50.594,57.533 50.402,58.083 50.318 C 61.162 49.853,73.970 49.757,78.893 50.163 M167.417 51.090 C 165.935 51.309,164.055 51.876,163.083 52.397 C 162.808 52.544,162.525 52.665,162.453 52.666 C 161.328 52.675,157.175 56.382,156.291 58.167 C 156.132 58.487,155.933 58.862,155.848 59.000 C 153.387 62.984,154.048 70.181,157.211 73.820 C 158.534 75.343,162.910 78.148,164.000 78.172 C 164.137 78.175,164.625 78.362,165.083 78.587 C 165.542 78.812,166.104 78.999,166.333 79.002 C 166.563 79.005,167.065 79.151,167.451 79.326 C 167.836 79.501,168.806 79.766,169.605 79.916 C 170.405 80.066,171.252 80.286,171.488 80.405 C 171.724 80.524,172.323 80.673,172.819 80.737 C 173.315 80.800,174.140 81.027,174.652 81.240 C 175.164 81.454,175.827 81.680,176.125 81.744 C 178.934 82.344,181.000 84.539,181.000 86.925 C 181.000 94.207,167.106 94.254,159.294 86.998 C 158.382 86.150,157.919 86.142,157.220 86.962 C 156.360 87.971,153.801 91.028,153.119 91.861 L 152.489 92.632 152.775 93.232 C 152.933 93.563,153.113 93.833,153.176 93.833 C 153.239 93.833,153.779 94.227,154.375 94.708 C 154.971 95.190,155.674 95.714,155.937 95.874 C 156.201 96.034,156.754 96.385,157.167 96.654 C 159.443 98.139,163.026 99.592,166.500 100.439 C 169.456 101.160,176.163 101.157,178.917 100.434 C 182.843 99.403,187.431 96.389,188.197 94.338 C 188.259 94.171,188.384 93.988,188.475 93.932 C 188.815 93.722,189.835 91.373,190.074 90.250 C 190.210 89.608,190.399 88.821,190.494 88.501 C 190.748 87.644,190.708 84.536,190.430 83.572 C 190.300 83.120,190.108 82.323,190.004 81.802 C 189.899 81.280,189.684 80.680,189.525 80.468 C 189.367 80.257,189.142 79.865,189.026 79.598 C 188.771 79.009,188.436 78.611,186.897 77.070 C 185.621 75.793,185.031 75.396,182.833 74.334 C 180.592 73.251,180.464 73.197,179.563 72.940 C 179.094 72.807,178.493 72.585,178.228 72.448 C 177.962 72.311,177.372 72.145,176.914 72.080 C 176.457 72.014,175.746 71.821,175.333 71.651 C 174.921 71.481,174.068 71.262,173.437 71.164 C 172.807 71.067,172.074 70.874,171.808 70.737 C 171.542 70.600,170.910 70.410,170.402 70.316 C 169.894 70.223,169.135 69.963,168.714 69.740 C 168.294 69.516,167.840 69.333,167.705 69.333 C 166.627 69.333,164.647 67.387,164.175 65.861 L 163.803 64.659 164.155 63.500 C 164.502 62.359,165.950 60.500,166.492 60.500 C 166.596 60.500,166.883 60.353,167.132 60.173 C 168.272 59.349,174.578 59.356,176.200 60.184 C 176.541 60.358,176.921 60.500,177.044 60.500 C 177.420 60.500,181.209 62.380,181.872 62.896 C 182.123 63.091,182.548 63.419,182.817 63.626 C 183.821 64.399,185.495 63.832,185.499 62.718 C 185.500 62.608,185.639 62.421,185.809 62.301 C 185.978 62.181,186.244 61.858,186.398 61.583 C 186.553 61.308,186.904 60.783,187.179 60.417 C 187.785 59.608,188.480 58.619,188.880 57.997 C 189.263 57.401,189.023 56.811,188.186 56.294 C 187.861 56.093,187.471 55.814,187.319 55.673 C 187.167 55.532,186.652 55.192,186.175 54.917 C 185.697 54.642,185.058 54.255,184.754 54.058 C 184.450 53.861,184.025 53.647,183.809 53.583 C 183.593 53.518,183.237 53.352,183.018 53.213 C 181.977 52.555,177.918 51.375,175.667 51.077 C 173.498 50.789,169.413 50.795,167.417 51.090 M280.167 53.549 L 279.750 53.760 279.706 58.241 C 279.653 63.531,279.834 63.121,277.517 63.194 C 275.001 63.272,275.167 62.991,275.167 67.198 C 275.167 71.605,275.024 71.333,277.335 71.333 C 279.896 71.333,279.635 70.113,279.709 82.417 C 279.784 94.844,279.911 95.553,282.517 98.135 C 284.519 100.118,286.211 100.785,289.647 100.944 C 291.711 101.039,294.713 100.801,295.075 100.513 C 295.171 100.436,295.696 100.246,296.240 100.090 C 298.714 99.380,298.833 99.147,298.833 95.020 C 298.833 90.990,298.674 90.743,296.724 91.750 C 295.726 92.266,292.972 92.494,291.500 92.183 C 290.400 91.951,289.532 91.059,289.315 89.939 C 289.079 88.721,289.140 72.313,289.382 71.833 L 289.593 71.417 293.991 71.372 C 296.933 71.342,298.464 71.266,298.614 71.141 C 298.794 70.992,298.830 70.203,298.795 67.273 L 298.750 63.593 298.333 63.382 C 298.031 63.229,296.766 63.171,293.714 63.169 C 289.731 63.167,289.503 63.150,289.339 62.844 C 289.233 62.645,289.167 60.829,289.167 58.100 C 289.167 53.899,289.151 53.670,288.844 53.506 C 288.354 53.243,280.696 53.281,280.167 53.549 M212.000 62.610 C 209.866 63.029,206.863 64.564,205.333 66.016 C 203.371 67.878,203.170 67.815,203.217 65.355 C 203.246 63.828,203.215 63.614,202.926 63.403 C 202.437 63.045,194.728 63.068,194.250 63.429 C 193.920 63.678,193.916 63.925,193.833 86.965 L 193.750 110.250 194.133 110.792 L 194.517 111.333 198.588 111.333 L 202.659 111.333 202.929 110.922 C 203.166 110.559,203.197 109.707,203.188 103.724 C 203.176 95.758,203.208 95.643,204.973 97.468 C 205.512 98.025,206.220 98.535,207.892 99.570 C 210.589 101.238,216.350 101.593,220.146 100.325 C 222.113 99.668,222.756 99.321,225.573 97.397 C 226.600 96.695,229.500 93.258,229.500 92.742 C 229.500 92.638,229.638 92.426,229.808 92.273 C 229.977 92.120,230.209 91.677,230.322 91.289 C 230.436 90.901,230.632 90.422,230.758 90.224 C 231.680 88.779,232.419 83.333,232.163 79.876 C 231.914 76.519,230.857 72.690,229.811 71.353 C 229.640 71.134,229.500 70.885,229.500 70.799 C 229.500 69.934,225.015 65.361,223.691 64.875 C 223.540 64.820,223.236 64.659,223.016 64.518 C 222.504 64.190,221.091 63.603,219.500 63.057 C 218.268 62.635,213.361 62.342,212.000 62.610 M251.500 62.609 C 250.377 62.830,248.021 63.509,247.580 63.739 C 247.307 63.881,246.997 63.998,246.892 63.999 C 246.472 64.001,243.548 65.640,242.429 66.500 C 241.939 66.877,239.125 69.726,238.791 70.183 C 237.849 71.476,237.333 72.272,237.333 72.435 C 237.333 72.538,237.191 72.803,237.016 73.025 C 236.842 73.247,236.618 73.726,236.520 74.089 C 236.422 74.453,236.224 74.917,236.080 75.122 C 235.936 75.326,235.710 76.076,235.577 76.788 C 235.444 77.501,235.222 78.493,235.084 78.995 C 234.925 79.573,234.833 80.640,234.833 81.917 C 234.833 83.193,234.925 84.260,235.084 84.839 C 235.222 85.340,235.446 86.342,235.581 87.066 C 235.716 87.790,235.936 88.504,236.070 88.652 C 236.204 88.800,236.384 89.235,236.470 89.617 C 236.556 90.000,236.786 90.515,236.980 90.762 C 237.174 91.010,237.333 91.304,237.333 91.416 C 237.333 91.529,237.540 91.891,237.792 92.221 C 238.044 92.552,238.507 93.181,238.821 93.619 C 246.333 104.106,263.973 103.541,271.162 92.583 C 271.523 92.033,271.972 91.403,272.159 91.182 C 272.347 90.961,272.500 90.619,272.500 90.423 C 272.500 90.226,272.680 89.821,272.899 89.524 C 273.118 89.226,273.351 88.632,273.415 88.204 C 273.479 87.775,273.693 87.123,273.891 86.754 C 274.438 85.732,274.444 77.951,273.898 76.917 C 273.705 76.550,273.499 75.940,273.441 75.561 C 273.383 75.181,273.110 74.443,272.834 73.919 C 272.559 73.395,272.333 72.873,272.333 72.759 C 272.333 72.645,272.183 72.416,272.000 72.250 C 271.817 72.084,271.667 71.858,271.667 71.747 C 271.667 71.554,271.458 71.256,270.048 69.435 C 267.921 66.689,264.195 64.374,259.750 63.036 C 258.439 62.642,252.812 62.350,251.500 62.609 M303.250 63.366 C 303.067 63.470,302.862 63.636,302.794 63.736 C 302.727 63.835,302.671 71.999,302.669 81.877 L 302.667 99.838 303.158 100.137 C 303.894 100.584,311.617 100.521,311.951 100.065 C 312.346 99.524,312.260 63.803,311.862 63.442 C 311.483 63.100,303.839 63.032,303.250 63.366 M73.167 67.163 C 73.946 67.252,75.821 67.441,77.333 67.583 C 78.846 67.726,80.496 67.950,81.000 68.080 C 81.504 68.210,82.592 68.431,83.417 68.571 C 84.242 68.710,85.329 68.931,85.833 69.062 C 86.337 69.192,87.200 69.414,87.750 69.555 C 90.054 70.145,91.222 70.488,91.721 70.719 C 92.012 70.854,92.513 71.019,92.833 71.086 C 93.154 71.153,93.770 71.386,94.203 71.604 C 94.635 71.822,95.085 72.001,95.203 72.002 C 95.320 72.002,95.792 72.188,96.250 72.413 C 96.708 72.638,97.157 72.825,97.248 72.828 C 97.338 72.831,97.788 73.018,98.248 73.243 C 98.707 73.468,99.346 73.767,99.667 73.908 C 100.567 74.302,103.470 75.903,103.697 76.131 C 103.809 76.242,103.982 76.333,104.083 76.333 C 104.294 76.333,105.237 77.319,105.837 78.167 C 107.092 79.941,105.748 82.930,103.433 83.513 C 102.094 83.851,101.093 83.637,99.417 82.656 C 98.958 82.388,98.208 81.980,97.750 81.751 C 97.292 81.522,96.804 81.265,96.667 81.181 C 96.211 80.904,93.894 79.833,93.738 79.828 C 93.653 79.825,93.208 79.638,92.750 79.413 C 92.292 79.188,91.824 79.002,91.712 79.002 C 91.599 79.001,91.036 78.822,90.462 78.605 C 88.977 78.043,86.851 77.371,86.167 77.248 C 85.846 77.191,85.133 77.003,84.583 76.831 C 84.033 76.659,82.988 76.432,82.260 76.326 C 81.532 76.221,80.744 76.060,80.510 75.970 C 80.136 75.826,78.412 75.607,72.833 74.995 C 71.033 74.797,64.809 74.800,63.167 75.000 C 62.479 75.083,60.792 75.273,59.417 75.421 C 58.042 75.569,56.392 75.829,55.750 75.998 C 55.108 76.166,54.232 76.352,53.804 76.411 C 53.375 76.469,52.625 76.657,52.137 76.828 C 48.665 78.044,46.384 77.320,45.467 74.709 L 45.101 73.668 45.464 72.542 C 46.033 70.783,47.149 69.979,49.918 69.333 C 50.654 69.161,51.472 68.939,51.736 68.839 C 51.999 68.739,52.785 68.579,53.482 68.485 C 54.180 68.390,55.121 68.204,55.574 68.072 C 56.027 67.940,57.602 67.714,59.074 67.569 C 60.546 67.425,62.275 67.247,62.917 67.176 C 64.623 66.985,71.520 66.977,73.167 67.163 M214.833 71.065 C 217.390 71.482,219.246 72.783,221.039 75.415 C 221.289 75.782,221.495 76.151,221.497 76.234 C 221.499 76.317,221.680 76.767,221.899 77.234 C 223.167 79.932,222.707 85.450,220.969 88.391 C 220.181 89.725,217.259 92.167,216.451 92.167 C 216.314 92.167,215.697 92.323,215.079 92.513 C 213.326 93.055,209.719 92.625,208.667 91.748 C 208.529 91.634,208.188 91.425,207.909 91.284 C 206.686 90.665,204.344 87.878,204.061 86.704 C 204.001 86.454,203.794 85.912,203.601 85.500 C 202.767 83.717,203.150 78.511,204.263 76.500 C 204.390 76.271,204.609 75.840,204.749 75.543 C 205.191 74.605,207.475 72.452,208.667 71.850 C 210.412 70.968,212.559 70.695,214.833 71.065 M256.874 71.159 C 257.746 71.302,259.722 72.113,260.301 72.566 C 263.866 75.352,264.935 77.763,264.797 82.699 C 264.729 85.133,264.693 85.373,264.279 86.172 C 264.034 86.644,263.833 87.118,263.833 87.224 C 263.833 87.330,263.549 87.834,263.202 88.344 C 259.523 93.761,252.148 94.429,247.483 89.768 C 246.759 89.044,246.167 88.361,246.167 88.249 C 246.167 88.137,246.019 87.857,245.838 87.627 C 244.671 86.143,243.958 81.433,244.583 79.333 C 244.733 78.829,244.971 78.004,245.112 77.500 C 245.252 76.996,245.463 76.471,245.580 76.333 C 245.697 76.196,245.921 75.821,246.077 75.500 C 246.383 74.870,249.093 72.167,249.419 72.167 C 249.528 72.167,249.973 71.978,250.407 71.746 C 251.693 71.063,254.649 70.794,256.874 71.159 M76.296 83.749 C 77.146 83.889,78.675 84.119,79.694 84.261 C 80.712 84.403,81.854 84.622,82.231 84.748 C 82.608 84.874,83.393 85.062,83.974 85.166 C 84.556 85.269,85.231 85.434,85.474 85.532 C 85.718 85.631,86.479 85.883,87.167 86.094 C 88.976 86.647,90.319 87.130,91.094 87.505 C 91.467 87.686,91.830 87.833,91.901 87.833 C 92.019 87.833,95.633 89.611,97.000 90.341 C 99.839 91.858,100.701 93.501,99.596 95.291 C 98.445 97.156,96.462 97.482,94.473 96.132 C 94.161 95.920,93.007 95.309,91.911 94.774 C 89.051 93.379,88.661 93.204,87.917 92.986 C 87.550 92.878,87.159 92.718,87.049 92.631 C 86.849 92.472,85.792 92.160,83.250 91.509 C 82.517 91.322,81.562 91.053,81.128 90.912 C 80.695 90.771,79.682 90.579,78.878 90.487 C 78.074 90.394,76.817 90.190,76.083 90.034 C 74.376 89.670,63.005 89.612,61.532 89.959 C 61.046 90.073,59.598 90.283,58.315 90.424 C 57.032 90.566,55.791 90.755,55.557 90.843 C 55.323 90.932,54.408 91.121,53.524 91.262 C 52.640 91.404,51.601 91.598,51.216 91.694 C 49.695 92.074,47.808 90.952,47.475 89.469 C 46.987 87.300,48.598 85.615,51.500 85.258 C 52.004 85.196,52.979 85.006,53.667 84.836 C 54.354 84.665,55.667 84.441,56.583 84.337 C 57.500 84.232,59.000 84.030,59.917 83.886 C 63.649 83.301,73.082 83.222,76.296 83.749 " stroke="none" fill="#1ed760" fill-rule="evenodd"></path></g></svg>